<?xml version="1.0" encoding="utf-8"?>
<!-- Generator: Adobe Illustrator 18.1.1, SVG Export Plug-In . SVG Version: 6.00 Build 0)  -->
<svg version="1.1" id="Camada_1" xmlns="http://www.w3.org/2000/svg" xmlns:xlink="http://www.w3.org/1999/xlink" x="0px" y="0px"
	 viewBox="0 0 40 40" enable-background="new 0 0 40 40" xml:space="preserve">
<g>
	<g>
		<g>
			<path fill="#FFFFFF" d="M4.9,15.9h-4v-2.8h11.3v2.8h-4v11.9H4.9V15.9z"/>
			<path fill="#FFFFFF" d="M24.2,27.4c-0.6,0.3-2,0.6-3.8,0.6c-5.1,0-7.7-3.2-7.7-7.4c0-5,3.6-7.8,8-7.8c1.7,0,3,0.4,3.6,0.6
				l-0.7,2.6c-0.7-0.3-1.6-0.5-2.8-0.5c-2.6,0-4.7,1.6-4.7,4.9c0,2.9,1.7,4.8,4.7,4.8c1,0,2.1-0.2,2.8-0.5L24.2,27.4z"/>
			<path fill="#FFFFFF" d="M29.7,13.1v8.5c0,2.6,1,3.8,2.7,3.8c1.7,0,2.7-1.2,2.7-3.8v-8.5h3.3v8.3c0,4.5-2.3,6.7-6.1,6.7
				c-3.7,0-5.9-2.1-5.9-6.8v-8.2H29.7z"/>
		</g>
		<g>
			<path fill="#FFFFFF" d="M5.8,11.1L3.7,9.8C7.2,4,13.4,0.6,20.2,0.6s13,3.5,16.6,9.2l-2.1,1.3C31.6,6,26.2,3,20.2,3
				C14.3,3,8.9,6,5.8,11.1z"/>
		</g>
		<g>
			<path fill="#FFFFFF" d="M20.2,39.4c-6.4,0-12.3-3.1-16-8.4l2-1.4c3.2,4.6,8.4,7.3,14,7.3c5.6,0,10.9-2.8,14.1-7.5l2,1.4
				C32.7,36.2,26.7,39.4,20.2,39.4z"/>
		</g>
	</g>
</g>
</svg>
