<svg id="Camada_1" data-name="Camada 1" xmlns="http://www.w3.org/2000/svg" viewBox="0 0 37.5 38.8"><defs><style>.cls-1{fill:#595959;}</style></defs><title>icones-home-tcu-black</title><path class="cls-1" d="M4.9,15.9h-4V13.1H12.2v2.8h-4V27.8H4.9V15.9Z" transform="translate(-0.9 -0.6)"/><path class="cls-1" d="M24.2,27.4a9.8,9.8,0,0,1-3.8.6c-5.1,0-7.7-3.2-7.7-7.4,0-5,3.6-7.8,8-7.8a11.27,11.27,0,0,1,3.6.6L23.6,16a7,7,0,0,0-2.8-.5c-2.6,0-4.7,1.6-4.7,4.9,0,2.9,1.7,4.8,4.7,4.8a7.78,7.78,0,0,0,2.8-.5Z" transform="translate(-0.9 -0.6)"/><path class="cls-1" d="M29.7,13.1v8.5c0,2.6,1,3.8,2.7,3.8s2.7-1.2,2.7-3.8V13.1h3.3v8.3c0,4.5-2.3,6.7-6.1,6.7s-5.9-2.1-5.9-6.8V13.1h3.3Z" transform="translate(-0.9 -0.6)"/><path class="cls-1" d="M5.8,11.1L3.7,9.8A19.08,19.08,0,0,1,20.2.6,19.59,19.59,0,0,1,36.8,9.8l-2.1,1.3A16.77,16.77,0,0,0,20.2,3,16.73,16.73,0,0,0,5.8,11.1Z" transform="translate(-0.9 -0.6)"/><path class="cls-1" d="M20.2,39.4A19.42,19.42,0,0,1,4.2,31l2-1.4a17,17,0,0,0,28.1-.2l2,1.4A19.27,19.27,0,0,1,20.2,39.4Z" transform="translate(-0.9 -0.6)"/></svg>