<?xml version="1.0" encoding="utf-8"?>
<!-- Generator: Adobe Illustrator 18.1.1, SVG Export Plug-In . SVG Version: 6.00 Build 0)  -->
<svg version="1.1" id="Camada_1" xmlns="http://www.w3.org/2000/svg" xmlns:xlink="http://www.w3.org/1999/xlink" x="0px" y="0px"
	 viewBox="0 0 40 40" enable-background="new 0 0 40 40" xml:space="preserve">
<g>
	<path fill="#FFFFFF" d="M8,31.1c-0.1,0.1-0.2,0.2-0.3,0.2c-0.1,0-0.1,0-0.2,0c-0.1,0-1.3-0.7-2.1-2.1c-0.8-1.4-0.9-2.2-0.9-2.2
		c0-0.2,0.1-0.4,0.3-0.4c0.2,0,0.4,0.1,0.4,0.3c0,0,0.1,0.7,0.8,1.9c0.7,1.2,1.8,1.8,1.8,1.8C8,30.7,8.1,30.9,8,31.1z M9.9,30.1
		c-0.1,0.1-0.2,0.2-0.4,0.2c0,0-0.1,0-0.1,0c-0.1,0-1.4-0.6-2.3-1.9c-1-1.3-1.1-2.1-1.1-2.1c0-0.2,0.1-0.4,0.3-0.4
		c0.2,0,0.4,0.1,0.4,0.3c0,0,0.2,0.7,1,1.8c0.8,1.1,2,1.6,2,1.6C9.9,29.7,10,29.9,9.9,30.1z M8.1,25.1c-1-2.7-1.3-5.2-1.5-6.1
		c-0.2-0.9-0.7-2.1-2.4-4.5c-1.7-2.4-2.7-4.2-3.1-4.9C0.9,9.1,1.4,8.4,2,8.4c0.2,0,0.5,0.1,0.7,0.4c0.8,0.9,3.8,4.6,4.3,5.1
		c0.2,0.2,0.6,0.4,0.9,0.4c0.4,0,0.6-0.3,0.1-1.4c-0.8-2.1-2.9-6.6-3.4-7.7C4.1,3.6,5,3.5,5,3.5s0.3-0.2,0.6-0.2
		c0.2,0,0.5,0.1,0.8,0.5c0.5,0.9,3.7,7.3,4.1,7.8c0.2,0.3,0.4,0.5,0.6,0.5c0.2,0,0.3-0.2,0.3-0.8c0-1.1-0.5-7.6-0.7-9.7
		c-0.1-0.8,0.7-1.1,1.1-1.2c0,0,0,0,0,0c0.4,0,1,0.4,1.1,0.9c0.1,0.5,1.4,8.6,1.6,9.6c0.1,0.6,0.4,1,0.7,1c0.2,0,0.5-0.3,0.6-1
		c0.2-1.5,1.5-7.8,1.7-8.6c0.1-0.6,0.5-0.9,0.9-0.9c0.1,0,0.2,0,0.3,0C19,1.6,19.5,2,19.4,2.6c0,0.6-0.7,8.5-0.6,11.1
		c-1.1,0.5-2.4,0.9-2.9,1l-0.1,0l-0.1,0L15.3,15c-0.1,0-0.3,0-0.4,0c-0.8,0-2.2,0.1-2.9,1.4c-0.3,0.6-0.4,1.3-0.1,2
		c0.5,1.2,1.8,1.8,2.2,2c0,0,0.1,0,0.1,0c0.5,0.2,1.1,0.4,2.5,0.4c0.7,0,1.5,0,2.5-0.1c-0.2,0.5-0.5,1-0.6,1.3l-0.1,0.3
		c-0.4,0.7-1.7,2.6-4.2,5.8c-0.4,0-0.7-0.1-1.2-0.1c-0.6,0-1.3,0-2,0.2C11,28.1,9.1,27.8,8.1,25.1z M35,20c-0.7,2.8-1.8,5.1-2.2,5.9
		c-0.4,0.9-0.6,2.1-0.5,5c0.1,2.9-0.1,5-0.2,5.8c0,0.4-0.5,0.7-0.9,0.7c-0.4,0-0.8-0.2-0.9-0.8c-0.2-1.2-0.6-6-0.7-6.6
		C29.7,29.6,29.3,29,29,29c-0.2,0-0.5,0.3-0.7,1.2c-0.5,2.1-1.2,7.1-1.5,8.3c-0.2,1.1-0.7,1.3-1,1.3c-0.1,0-0.2,0-0.2,0s0,0,0,0
		c-0.2,0-0.9,0-0.9-1c0-1.1,0.9-8.1,0.9-8.8c0-0.4-0.1-0.7-0.3-0.7c-0.1,0-0.3,0.1-0.6,0.5c-0.6,0.9-3.8,6.6-4.8,8.5
		c-0.2,0.4-0.6,0.5-0.9,0.5c-0.3,0-0.5-0.1-0.6-0.2c-0.3-0.2-0.6-0.9-0.5-1.4c0.1-0.5,3.5-7.9,4-8.8c0.3-0.6,0.2-1.2-0.2-1.2
		c-0.2,0-0.5,0.2-0.8,0.5c-1.1,1.2-5.6,5.6-6.1,6.2c-0.2,0.3-0.5,0.4-0.7,0.4c-0.3,0-0.5-0.2-0.7-0.4c-0.4-0.4-0.5-0.9-0.1-1.5
		c0.4-0.5,6-7.6,6.9-9.4c0.8-1.7,2.3-4.3-0.5-4.3c-0.2,0-0.3,0-0.5,0c-1.1,0.1-1.9,0.1-2.5,0.1c-1.2,0-1.5-0.2-1.9-0.3
		c-0.6-0.2-1.3-0.8-1.1-1.3c0.3-0.5,1.7-0.3,2.2-0.5c0.6-0.2,0.6-0.2,0.6-0.2s2.5-0.7,4.1-1.6c1.6-0.9,5.2-2.5,6.1-2.6
		c0.4-0.1,0.9-0.1,1.3-0.1c0.6,0,1.3,0.1,1.7,0.3c0.7,0.3,1.5,2,4.6,3.4C34.3,15.9,35.7,17.2,35,20z M36.7,20.9
		c-0.1,0.2-0.3,0.3-0.5,0.2C36,21,36,20.8,36,20.6c0,0,0.3-0.6,0.3-2.1c0-1.4-0.6-2.5-0.6-2.5c-0.1-0.2,0-0.4,0.1-0.5
		c0.1-0.1,0.3-0.1,0.4,0c0,0,0.1,0.1,0.1,0.1c0,0.1,0.8,1.3,0.7,2.9C37.1,20.2,36.8,20.9,36.7,20.9z M39,19
		c-0.2,1.6-0.6,2.3-0.6,2.3c-0.1,0.2-0.3,0.2-0.5,0.1c-0.2-0.1-0.2-0.3-0.1-0.5c0,0,0.3-0.6,0.5-2c0.2-1.4-0.4-2.5-0.4-2.5
		c-0.1-0.2,0-0.4,0.2-0.5c0.1-0.1,0.3,0,0.4,0c0,0,0.1,0.1,0.1,0.1C38.5,16.1,39.1,17.4,39,19z"/>
</g>
</svg>
