<svg xmlns="http://www.w3.org/2000/svg" xmlns:xlink="http://www.w3.org/1999/xlink" viewBox="0 0 634.1 92.3"><defs><style>.a{fill:none;}.b{fill:#fff;}.c{fill:#595959;}.d{fill:#50b748;}.e{fill:#0094d9;}.f{clip-path:url(#a);}</style><clipPath id="a" transform="translate(3 11.7)"><path class="a" d="M6.9,5.1H75.8V44.6l-21.7.1-7.5-.3-3.7.5-18-.1c4.9,3.6,6.6,6,19.3,11.9,3.3,1.5,7.3,1.7,9,1.9l-25.5-.7L27,57.3,26.7,57H26l0.1,0.4-1.3.1v0.3L22,57.7H17.3L16.2,43.6l-0.5,4.8L15.6,36V34l0.1,0.1,0.4-9.8L15.6,10.4H8.7L9.4,31.6l-2.5-.1V5.1h0Zm0,52.4H9L9.3,34.4l-2.5.1,0.1,23h0Zm0-24.4H9.2l0.1-.9H6.9v0.9ZM4.5,5.1H6.9V31.4H4.5V5.1h0Zm2.4,27V33l-2.4.1v-1H6.9Zm0,2.4v23H4.5V34.7Z"/></clipPath></defs><title>logo-camara</title><rect class="b" x="3" y="12.3" width="80" height="80"/><path class="c" d="M631.1,49.4a6.73,6.73,0,0,1-2.6,5.4,10,10,0,0,1-6.5,2.1,13.65,13.65,0,0,1-8-2.6l1.8-2.6c2.3,1.6,4.3,2.4,6.2,2.4a5.22,5.22,0,0,0,3.6-1.2,4.16,4.16,0,0,0,1.4-3.2c0-1.5-.8-2.9-2.4-4.3-0.4-.4-2-1.7-4.9-3.9s-4.3-4.3-4.3-6.7a6,6,0,0,1,2.4-4.8,9.27,9.27,0,0,1,6.1-1.9,10.3,10.3,0,0,1,6.9,2.5l-2.1,2.3a8.43,8.43,0,0,0-5-2,4.62,4.62,0,0,0-3.1,1,3.37,3.37,0,0,0-1.2,2.6c0,1.3.8,2.5,2.4,3.8,0.3,0.2,1.8,1.3,4.4,3.3a16.74,16.74,0,0,1,3.8,3.7,7.44,7.44,0,0,1,1.1,4.1h0Z" transform="translate(3 11.7)"/><path class="c" d="M603.6,32.2a13,13,0,0,0-9.8-4,13.69,13.69,0,0,0-14.2,14.1,14.79,14.79,0,0,0,3.8,10.4,14.25,14.25,0,0,0,20.4,0,15,15,0,0,0,3.8-10.5A13.72,13.72,0,0,0,603.6,32.2Zm-3,18.8a8.78,8.78,0,0,1-7,3.2,8.61,8.61,0,0,1-7.3-3.6,12.89,12.89,0,0,1-2.4-8,13.09,13.09,0,0,1,2.4-8,8.52,8.52,0,0,1,7.2-3.7,9,9,0,0,1,7.2,3.2,12.74,12.74,0,0,1,2.7,8.5A13.25,13.25,0,0,1,600.6,51Z" transform="translate(3 11.7)"/><path class="c" d="M568.6,31.5a11.32,11.32,0,0,0-4.7-2.2,37.9,37.9,0,0,0-7.7-.6h-7V56.5h6.7c4.3,0,7.7-.6,10.1-1.8,4.9-2.4,7.3-6.7,7.3-12.9A12.38,12.38,0,0,0,568.6,31.5Zm-3.3,19.9a9.93,9.93,0,0,1-3.6,1.7,27.54,27.54,0,0,1-5.8.5H553V31.4h3.1a21.74,21.74,0,0,1,6.8.7c4.1,1.3,6.2,4.7,6.2,10C569.1,46.3,567.8,49.5,565.3,51.4Z" transform="translate(3 11.7)"/><path class="c" d="M532.9,28.6h-2.6L518.8,56.4h3.5l3-8.2h10.9l2.8,8.2h4.2Zm-6.5,16.9,4.6-12,4.3,12h-8.9Z" transform="translate(3 11.7)"/><polygon class="c" points="519.2 43.1 510.3 43.1 510.3 68.2 506.4 68.2 506.4 43.1 497.5 43.1 497.5 40.3 519.2 40.3 519.2 43.1"/><path class="c" d="M488.9,44.4a26.11,26.11,0,0,1-.4,5.6,8.65,8.65,0,0,1-1.8,3.4q-3,3.6-8.7,3.6c-4.6,0-7.7-1.6-9.4-4.8a9.37,9.37,0,0,1-1.1-3.9,40.21,40.21,0,0,1-.1-4.1V28.6h3.9V44.1a33.12,33.12,0,0,0,.2,4,7.37,7.37,0,0,0,1.4,3.6,6.32,6.32,0,0,0,5.4,2.4c3.2,0,5.3-1.3,6.4-3.9,0.5-1.1.7-3.2,0.7-6.2V28.6H489V44.4h-0.1Z" transform="translate(3 11.7)"/><path class="c" d="M460.4,36.3a8.26,8.26,0,0,1-3,6.6,11.65,11.65,0,0,1-7.8,2.6V43a8.54,8.54,0,0,0,4.4-1.2,5.63,5.63,0,0,0,2.3-5c0-2.4-.8-3.9-2.5-4.8a9.56,9.56,0,0,0-4.3-.7h-1.8v25h-3.9V28.6h5.7c3.5,0,6,.5,7.5,1.4a6.86,6.86,0,0,1,3.4,6.3h0Z" transform="translate(3 11.7)"/><polygon class="c" points="440 68.2 424.4 68.2 424.4 40.3 438.3 40.3 438.3 43.1 428.3 43.1 428.3 52.1 438.1 52.1 438.1 55 428.3 55 428.3 65.4 440 65.4 440 68.2"/><path class="c" d="M408.9,31.5a11.32,11.32,0,0,0-4.7-2.2,37.9,37.9,0,0,0-7.7-.6h-7V56.5h6.7c4.3,0,7.7-.6,10.1-1.8,4.9-2.4,7.3-6.7,7.3-12.9C413.6,37.4,412.1,33.9,408.9,31.5Zm-3.2,19.9a9.93,9.93,0,0,1-3.6,1.7,27.54,27.54,0,0,1-5.8.5h-2.9V31.4h3.1a21.74,21.74,0,0,1,6.8.7c4.1,1.3,6.2,4.7,6.2,10C409.4,46.3,408.2,49.5,405.7,51.4Z" transform="translate(3 11.7)"/><path class="c" d="M371.1,49.4a6.73,6.73,0,0,1-2.6,5.4,10,10,0,0,1-6.5,2.1,13.65,13.65,0,0,1-8-2.6l1.8-2.6c2.3,1.6,4.3,2.4,6.2,2.4a5.22,5.22,0,0,0,3.6-1.2,4.16,4.16,0,0,0,1.4-3.2c0-1.5-.8-2.9-2.4-4.3-0.4-.4-2-1.7-4.9-3.9s-4.3-4.3-4.3-6.7a6,6,0,0,1,2.4-4.8,9.27,9.27,0,0,1,6.1-1.9,10.3,10.3,0,0,1,6.9,2.5l-2.1,2.3a8.43,8.43,0,0,0-5-2,4.62,4.62,0,0,0-3.1,1,3.37,3.37,0,0,0-1.2,2.6c0,1.3.8,2.5,2.4,3.8,0.3,0.2,1.8,1.3,4.4,3.3a16.74,16.74,0,0,1,3.8,3.7,7.44,7.44,0,0,1,1.1,4.1h0Z" transform="translate(3 11.7)"/><path class="c" d="M343.6,32.2a13,13,0,0,0-9.8-4,13.79,13.79,0,0,0-10.2,4,13.41,13.41,0,0,0-4,10.1,14.79,14.79,0,0,0,3.8,10.4,14.25,14.25,0,0,0,20.4,0,15,15,0,0,0,3.8-10.5A13.72,13.72,0,0,0,343.6,32.2Zm-3,18.8a8.78,8.78,0,0,1-7,3.2,8.61,8.61,0,0,1-7.3-3.6,12.89,12.89,0,0,1-2.4-8,13.09,13.09,0,0,1,2.4-8,8.52,8.52,0,0,1,7.2-3.7,9,9,0,0,1,7.2,3.2,12.74,12.74,0,0,1,2.7,8.5A13.25,13.25,0,0,1,340.6,51Z" transform="translate(3 11.7)"/><path class="c" d="M308.6,31.5a11.32,11.32,0,0,0-4.7-2.2,37.9,37.9,0,0,0-7.7-.6h-7V56.5h6.7c4.3,0,7.7-.6,10.1-1.8,4.9-2.4,7.3-6.7,7.3-12.9A12.38,12.38,0,0,0,308.6,31.5Zm-3.3,19.9a9.93,9.93,0,0,1-3.6,1.7,27.54,27.54,0,0,1-5.8.5H293V31.4h3.1a21.74,21.74,0,0,1,6.8.7c4.1,1.3,6.2,4.7,6.2,10C309.1,46.3,307.8,49.5,305.3,51.4Z" transform="translate(3 11.7)"/><path class="c" d="M262.4,28.6h-2.6L248.3,56.4h3.5l3-8.2h10.9l2.8,8.2h4.2ZM256,45.5l4.6-12,4.3,12H256Z" transform="translate(3 11.7)"/><path class="c" d="M238.5,43.9c3.1-2,4.7-4.6,4.7-8a6.59,6.59,0,0,0-2.7-5.7q-2-1.5-6.9-1.5h-6.5V56.5H231V44.9h4.1l6.5,12,4-1.1Zm-5.8-1.8H231V31.4h2.5a7.07,7.07,0,0,1,3.8.7,4.6,4.6,0,0,1,1.8,4.1,6.09,6.09,0,0,1-1.5,4.3C236.6,41.6,235,42.1,232.7,42.1Z" transform="translate(3 11.7)"/><path class="c" d="M210.9,28.6h-2.6L196.8,56.4h3.5l3-8.2h10.9l2.8,8.2h4.2Zm-6.5,16.9,4.6-12,4.3,12h-8.9Z" transform="translate(3 11.7)"/><path class="c" d="M191,56.5h-3.9V40.3c0-1.3.1-3.7,0.2-7-0.8,2.1-1.7,4.2-2.6,6.2l-8.3,17h-1.8l-7.9-17c-0.3-.6-1.1-2.7-2.5-6.2,0.2,2.8.2,5.1,0.2,7V56.5h-3.2V28.6h4.1l10.5,22.7L187,28.6h3.9V56.5H191Z" transform="translate(3 11.7)"/><path class="c" d="M145,28.6h-2.6L131,56.5h3.5l3-8.2h10.9l2.8,8.2h4.2Zm-6.4,16.9,4.6-12,4.3,12h-8.9Z" transform="translate(3 11.7)"/><polygon class="c" points="152.6 38.5 150.6 38.5 146.4 34.6 142.3 38.5 140.3 38.5 145.3 31.8 147.7 31.8 152.6 38.5"/><path class="c" d="M127.3,30.9l-1.6,2.4a13,13,0,0,0-7.4-2.4,10.55,10.55,0,0,0-7.9,3.2,11.59,11.59,0,0,0-3,8.3,11.64,11.64,0,0,0,3.1,8.4,10.63,10.63,0,0,0,8,3.3,12.9,12.9,0,0,0,6.9-2l1.5,2.3a16.15,16.15,0,0,1-9.1,2.5,14.56,14.56,0,0,1-10.6-4,13.34,13.34,0,0,1-4.1-10.2,14,14,0,0,1,4.4-10.5A15.18,15.18,0,0,1,118.4,28a18.06,18.06,0,0,1,8.9,2.9h0Z" transform="translate(3 11.7)"/><polygon class="d" points="78.8 73.3 78.8 87.8 7.5 87.8 7.5 74.4 78.8 73.3"/><path class="e" d="M6.9,5.1H75.8V44.6l-21.7.1-7.5-.3-3.7.5-18-.1c4.9,3.6,6.6,6,19.3,11.9,3.3,1.5,7.3,1.7,9,1.9l-25.5-.7L27,57.3,26.7,57H26l0.1,0.4-1.3.1v0.3L22,57.7H17.3L16.2,43.6l-0.5,4.8L15.6,36V34l0.1,0.1,0.4-9.8L15.6,10.4H8.7L9.4,31.6l-2.5-.1V5.1h0Zm0,52.4H9L9.3,34.4l-2.5.1,0.1,23h0Zm0-24.4H9.2l0.1-.9H6.9v0.9ZM4.5,5.1H6.9V31.4H4.5V5.1h0Zm2.4,27V33l-2.4.1v-1H6.9Zm0,2.4v23H4.5V34.7Z" transform="translate(3 11.7)"/><g class="f"><polygon class="e" points="9.9 0 85.4 10.6 84.2 18.5 8.8 7.8 9.9 0"/></g><g class="f"><polygon class="e" points="8.9 7.6 84.2 18.3 84.2 18.7 8.8 8 8.9 7.6"/></g><g class="f"><polygon class="e" points="8.8 7.8 84.2 18.5 84.2 18.9 8.7 8.2 8.8 7.8"/></g><g class="f"><polygon class="e" points="8.8 8 84.2 18.7 84.1 19.1 8.7 8.4 8.8 8"/></g><g class="f"><polygon class="e" points="8.7 8.2 84.2 18.9 84.1 19.3 8.7 8.6 8.7 8.2"/></g><g class="f"><polygon class="e" points="8.7 8.4 84.1 19.1 84.1 19.5 8.7 8.8 8.7 8.4"/></g><g class="f"><polygon class="e" points="8.7 8.6 84.1 19.3 84 19.7 8.6 9 8.7 8.6"/></g><g class="f"><polygon class="e" points="8.7 8.8 84.1 19.5 84 19.9 8.6 9.3 8.7 8.8"/></g><g class="f"><polygon class="e" points="8.6 9 84 19.7 84 20.1 8.6 9.5 8.6 9"/></g><g class="f"><polygon class="e" points="8.6 9.3 84 19.9 84 20.3 8.5 9.7 8.6 9.3"/></g><g class="f"><polygon class="e" points="8.6 9.5 84 20.1 83.9 20.6 8.5 9.9 8.6 9.5"/></g><g class="f"><polygon class="e" points="8.5 9.7 84 20.3 83.9 20.8 8.5 10.1 8.5 9.7"/></g><g class="f"><polygon class="e" points="8.5 9.9 83.9 20.6 83.8 21 8.5 10.3 8.5 9.9"/></g><g class="f"><polygon class="e" points="8.5 10.1 83.9 20.8 83.8 21.2 8.4 10.6 8.5 10.1"/></g><g class="f"><polygon class="e" points="8.5 10.3 83.8 21 83.8 21.4 8.4 10.8 8.5 10.3"/></g><g class="f"><polygon class="e" points="8.4 10.6 83.8 21.2 83.8 21.6 8.3 11 8.4 10.6"/></g><g class="f"><polygon class="e" points="8.4 10.8 83.8 21.4 83.8 21.9 8.3 11.2 8.4 10.8"/></g><g class="f"><polygon class="e" points="8.3 11 83.8 21.6 83.7 22.1 8.3 11.4 8.3 11"/></g><g class="f"><polygon class="e" points="8.3 11.2 83.8 21.9 83.7 22.3 8.2 11.6 8.3 11.2"/></g><g class="f"><polygon class="e" points="8.3 11.4 83.7 22.1 83.6 22.5 8.2 11.8 8.3 11.4"/></g><g class="f"><polygon class="e" points="8.2 11.6 83.7 22.3 83.6 22.7 8.2 12 8.2 11.6"/></g><g class="f"><polygon class="e" points="8.2 11.8 83.6 22.5 83.6 22.9 8.2 12.2 8.2 11.8"/></g><g class="f"><polygon class="e" points="8.2 12 83.6 22.7 83.6 23.1 8.1 12.4 8.2 12"/></g><g class="f"><polygon class="e" points="8.2 12.2 83.6 22.9 83.5 23.3 8.1 12.6 8.2 12.2"/></g><g class="f"><polygon class="e" points="8.1 12.4 83.6 23.1 83.5 23.5 8.1 12.8 8.1 12.4"/></g><g class="f"><polygon class="e" points="8.1 12.6 83.5 23.3 83.5 23.7 8.1 13.1 8.1 12.6"/></g><g class="f"><polygon class="e" points="8.1 12.8 83.5 23.5 83.4 23.9 8 13.3 8.1 12.8"/></g><g class="f"><polygon class="e" points="8.1 13.1 83.5 23.7 83.4 24.1 8 13.5 8.1 13.1"/></g><g class="f"><polygon class="e" points="8 13.3 83.4 23.9 83.4 24.4 8 13.7 8 13.3"/></g><g class="f"><polygon class="e" points="8 13.5 83.4 24.1 83.4 24.6 7.9 13.9 8 13.5"/></g><g class="f"><polygon class="e" points="8 13.7 83.4 24.4 83.3 24.8 7.9 14.2 8 13.7"/></g><g class="f"><polygon class="e" points="7.9 13.9 83.4 24.6 83.3 25 7.9 14.4 7.9 13.9"/></g><g class="f"><polygon class="e" points="7.9 14.2 83.3 24.8 83.2 25.2 7.9 14.6 7.9 14.2"/></g><g class="f"><polygon class="e" points="7.9 14.4 83.3 25 83.2 25.5 7.8 14.8 7.9 14.4"/></g><g class="f"><polygon class="e" points="7.9 14.6 83.2 25.2 83.2 25.7 7.8 15 7.9 14.6"/></g><g class="f"><polygon class="e" points="7.8 14.8 83.2 25.5 83.2 25.8 7.7 15.2 7.8 14.8"/></g><g class="f"><polygon class="e" points="7.8 15 83.2 25.7 83.2 26 7.7 15.4 7.8 15"/></g><g class="f"><polygon class="e" points="7.7 15.2 83.2 25.8 83.1 26.2 7.7 15.6 7.7 15.2"/></g><g class="f"><polygon class="e" points="7.7 15.4 83.2 26 83.1 26.4 7.7 15.8 7.7 15.4"/></g><g class="f"><polygon class="e" points="7.7 15.6 83.1 26.2 83 26.7 7.7 16 7.7 15.6"/></g><g class="f"><polygon class="e" points="7.7 15.8 83.1 26.4 83 26.9 7.6 16.2 7.7 15.8"/></g><g class="f"><polygon class="e" points="7.7 16 83 26.7 83 27.1 7.6 16.4 7.7 16"/></g><g class="f"><polygon class="e" points="7.6 16.2 83 26.9 83 27.3 7.5 16.7 7.6 16.2"/></g><g class="f"><polygon class="e" points="7.6 16.4 83 27.1 82.9 27.5 7.5 16.9 7.6 16.4"/></g><g class="f"><polygon class="e" points="7.5 16.7 83 27.3 82.9 27.7 7.4 17.1 7.5 16.7"/></g><g class="f"><polygon class="e" points="7.5 16.9 82.9 27.5 82.9 28 7.4 17.3 7.5 16.9"/></g><g class="f"><polygon class="e" points="7.4 17.1 82.9 27.7 82.8 28.2 7.4 17.5 7.4 17.1"/></g><g class="f"><polygon class="e" points="7.4 17.3 82.9 28 82.8 28.4 7.4 17.7 7.4 17.3"/></g><g class="f"><polygon class="e" points="7.4 17.5 82.8 28.2 82.8 28.6 7.4 17.9 7.4 17.5"/></g><g class="f"><polygon class="e" points="7.4 17.7 82.8 28.4 82.8 28.8 7.3 18.1 7.4 17.7"/></g><g class="f"><polygon class="e" points="7.4 17.9 82.8 28.6 82.7 29 7.3 18.3 7.4 17.9"/></g><g class="f"><polygon class="e" points="7.3 18.1 82.8 28.8 82.7 29.2 7.2 18.5 7.3 18.1"/></g><g class="f"><polygon class="e" points="7.3 18.3 82.7 29 82.6 29.4 7.2 18.7 7.3 18.3"/></g><g class="f"><polygon class="e" points="7.2 18.5 82.7 29.2 82.6 29.6 7.2 18.9 7.2 18.5"/></g><g class="f"><polygon class="e" points="7.2 18.7 82.6 29.4 82.6 29.8 7.2 19.2 7.2 18.7"/></g><g class="f"><polygon class="e" points="7.2 18.9 82.6 29.6 82.6 30 7.1 19.4 7.2 18.9"/></g><g class="f"><polygon class="e" points="7.2 19.2 82.6 29.8 82.6 30.2 7.1 19.6 7.2 19.2"/></g><g class="f"><polygon class="e" points="7.1 19.4 82.6 30 82.5 30.5 7.1 19.8 7.1 19.4"/></g><g class="f"><polygon class="e" points="7.1 19.6 82.6 30.2 82.5 30.7 7.1 20 7.1 19.6"/></g><g class="f"><polygon class="e" points="7.1 19.8 82.5 30.5 82.4 30.9 7.1 20.2 7.1 19.8"/></g><g class="f"><polygon class="e" points="7.1 20 82.5 30.7 82.4 31.1 7 20.5 7.1 20"/></g><g class="f"><polygon class="e" points="7.1 20.2 82.4 30.9 82.4 31.3 7 20.7 7.1 20.2"/></g><g class="f"><polygon class="e" points="7 20.5 82.4 31.1 82.4 31.5 6.9 20.9 7 20.5"/></g><g class="f"><polygon class="e" points="7 20.7 82.4 31.3 82.3 31.8 6.9 21.1 7 20.7"/></g><g class="f"><polygon class="e" points="6.9 20.9 82.4 31.5 82.3 32 6.8 21.3 6.9 20.9"/></g><g class="f"><polygon class="e" points="6.9 21.1 82.3 31.8 82.3 32.2 6.8 21.5 6.9 21.1"/></g><g class="f"><polygon class="e" points="6.8 21.3 82.3 32 82.2 32.4 6.8 21.7 6.8 21.3"/></g><g class="f"><polygon class="e" points="6.8 21.5 82.3 32.2 82.2 32.6 6.8 21.9 6.8 21.5"/></g><g class="f"><polygon class="e" points="6.8 21.7 82.2 32.4 82.2 32.8 6.8 22.1 6.8 21.7"/></g><g class="f"><polygon class="e" points="6.8 21.9 82.2 32.6 82.2 33 6.7 22.3 6.8 21.9"/></g><g class="f"><polygon class="e" points="6.8 22.1 82.2 32.8 82.1 33.2 6.7 22.5 6.8 22.1"/></g><g class="f"><polygon class="e" points="6.7 22.3 82.2 33 82.1 33.4 6.6 22.8 6.7 22.3"/></g><g class="f"><polygon class="e" points="6.7 22.5 82.1 33.2 82 33.6 6.6 23 6.7 22.5"/></g><g class="f"><polygon class="e" points="6.6 22.8 82.1 33.4 82 33.8 6.6 23.2 6.6 22.8"/></g><g class="f"><polygon class="e" points="6.6 23 82 33.6 82 34.1 6.6 23.4 6.6 23"/></g><g class="f"><polygon class="e" points="6.6 23.2 82 33.8 82 34.3 6.5 23.6 6.6 23.2"/></g><g class="f"><polygon class="e" points="6.6 23.4 82 34.1 82 34.5 6.5 23.8 6.6 23.4"/></g><g class="f"><polygon class="e" points="6.5 23.6 82 34.3 81.9 34.7 6.5 24.1 6.5 23.6"/></g><g class="f"><polygon class="e" points="6.5 23.8 82 34.5 81.9 34.9 6.4 24.3 6.5 23.8"/></g><g class="f"><polygon class="e" points="6.5 24.1 81.9 34.7 81.8 35.1 6.4 24.5 6.5 24.1"/></g><g class="f"><polygon class="e" points="6.4 24.3 81.9 34.9 81.8 35.3 6.4 24.7 6.4 24.3"/></g><g class="f"><polygon class="e" points="6.4 24.5 81.8 35.1 81.8 35.5 6.4 24.9 6.4 24.5"/></g><g class="f"><polygon class="e" points="6.4 24.7 81.8 35.3 81.8 35.7 6.3 25.1 6.4 24.7"/></g><g class="f"><polygon class="e" points="6.4 24.9 81.8 35.5 81.7 35.9 6.3 25.3 6.4 24.9"/></g><g class="f"><polygon class="e" points="6.3 25.1 81.8 35.7 81.7 36.1 6.2 25.5 6.3 25.1"/></g><g class="f"><polygon class="e" points="6.3 25.3 81.7 35.9 81.7 36.3 6.2 25.7 6.3 25.3"/></g><g class="f"><polygon class="e" points="6.2 25.5 81.7 36.1 81.6 36.6 6.2 25.9 6.2 25.5"/></g><g class="f"><polygon class="e" points="6.2 25.7 81.7 36.3 81.6 36.8 6.2 26.1 6.2 25.7"/></g><g class="f"><polygon class="e" points="6.2 25.9 81.6 36.6 81.6 37 6.2 26.3 6.2 25.9"/></g><g class="f"><polygon class="e" points="6.2 26.1 81.6 36.8 81.6 37.2 6.1 26.6 6.2 26.1"/></g><g class="f"><polygon class="e" points="6.2 26.3 81.6 37 81.5 37.4 6.1 26.8 6.2 26.3"/></g><g class="f"><polygon class="e" points="6.1 26.6 81.6 37.2 81.5 37.6 6.1 27 6.1 26.6"/></g><g class="f"><polygon class="e" points="6.1 26.8 81.5 37.4 81.4 37.9 6.1 27.2 6.1 26.8"/></g><g class="f"><polygon class="e" points="6.1 27 81.5 37.6 81.4 38.1 6 27.4 6.1 27"/></g><g class="f"><polygon class="e" points="6.1 27.2 81.4 37.9 81.4 38.3 6 27.6 6.1 27.2"/></g><g class="f"><polygon class="e" points="6 27.4 81.4 38.1 81.4 38.5 5.9 27.8 6 27.4"/></g><g class="f"><polygon class="e" points="6 27.6 81.4 38.3 81.4 38.7 5.9 28 6 27.6"/></g><g class="f"><polygon class="e" points="5.9 27.8 81.4 38.5 81.3 38.9 5.9 28.2 5.9 27.8"/></g><g class="f"><polygon class="e" points="5.9 28 81.4 38.7 81.3 39.1 5.8 28.4 5.9 28"/></g><g class="f"><polygon class="e" points="5.9 28.2 81.3 38.9 81.2 39.3 5.8 28.6 5.9 28.2"/></g><g class="f"><polygon class="e" points="5.8 28.4 81.3 39.1 81.2 39.5 5.8 28.9 5.8 28.4"/></g><g class="f"><polygon class="e" points="5.8 28.6 81.2 39.3 81.2 39.7 5.8 29.1 5.8 28.6"/></g><g class="f"><polygon class="e" points="5.8 28.9 81.2 39.5 81.2 39.9 5.7 29.3 5.8 28.9"/></g><g class="f"><polygon class="e" points="5.8 29.1 81.2 39.7 81.1 40.2 5.7 29.5 5.8 29.1"/></g><g class="f"><polygon class="e" points="5.7 29.3 81.2 39.9 81.1 40.4 5.6 29.7 5.7 29.3"/></g><g class="f"><polygon class="e" points="5.7 29.5 81.1 40.2 81.1 40.6 5.6 29.9 5.7 29.5"/></g><g class="f"><polygon class="e" points="5.6 29.7 81.1 40.4 81 40.8 5.6 30.2 5.6 29.7"/></g><g class="f"><polygon class="e" points="5.6 29.9 81.1 40.6 81 41 5.6 30.4 5.6 29.9"/></g><g class="f"><polygon class="e" points="5.6 30.2 81 40.8 81 41.2 5.6 30.6 5.6 30.2"/></g><g class="f"><polygon class="e" points="5.6 30.4 81 41 81 41.5 5.5 30.8 5.6 30.4"/></g><g class="f"><polygon class="e" points="5.6 30.6 81 41.2 80.9 41.7 5.5 31 5.6 30.6"/></g><g class="f"><polygon class="e" points="5.5 30.8 81 41.5 80.9 41.9 5.4 31.2 5.5 30.8"/></g><g class="f"><polygon class="e" points="5.5 31 80.9 41.7 80.8 42.1 5.4 31.4 5.5 31"/></g><g class="f"><polygon class="e" points="5.4 31.2 80.9 41.9 80.8 42.3 5.4 31.6 5.4 31.2"/></g><g class="f"><polygon class="e" points="5.4 31.4 80.8 42.1 80.8 42.5 5.4 31.8 5.4 31.4"/></g><g class="f"><polygon class="e" points="5.4 31.6 80.8 42.3 80.8 42.7 5.3 32 5.4 31.6"/></g><g class="f"><polygon class="e" points="5.4 31.8 80.8 42.5 80.8 42.9 5.3 32.2 5.4 31.8"/></g><g class="f"><polygon class="e" points="5.3 32 80.8 42.7 80.7 43.1 5.3 32.4 5.3 32"/></g><g class="f"><polygon class="e" points="5.3 32.2 80.8 42.9 80.7 43.3 5.3 32.7 5.3 32.2"/></g><g class="f"><polygon class="e" points="5.3 32.4 80.7 43.1 80.6 43.5 5.3 32.9 5.3 32.4"/></g><g class="f"><polygon class="e" points="5.3 32.7 80.7 43.3 80.6 43.7 5.2 33.1 5.3 32.7"/></g><g class="f"><polygon class="e" points="5.3 32.9 80.6 43.5 80.6 44 5.2 33.3 5.3 32.9"/></g><g class="f"><polygon class="e" points="5.2 33.1 80.6 43.7 80.6 44.2 5.1 33.5 5.2 33.1"/></g><g class="f"><polygon class="e" points="5.2 33.3 80.6 44 80.5 44.4 5.1 33.7 5.2 33.3"/></g><g class="f"><polygon class="e" points="5.1 33.5 80.6 44.2 80.5 44.6 5 34 5.1 33.5"/></g><g class="f"><polygon class="e" points="5.1 33.7 80.5 44.4 80.5 44.8 5 34.2 5.1 33.7"/></g><g class="f"><polygon class="e" points="5 34 80.5 44.6 80.4 45 5 34.3 5 34"/></g><g class="f"><polygon class="e" points="5 34.2 80.5 44.8 80.4 45.2 5 34.6 5 34.2"/></g><g class="f"><polygon class="e" points="5 34.3 80.4 45 80.4 45.4 5 34.7 5 34.3"/></g><g class="f"><polygon class="e" points="5 34.6 80.4 45.2 80.4 45.6 4.9 34.9 5 34.6"/></g><g class="f"><polygon class="e" points="5 34.7 80.4 45.4 80.3 45.8 4.9 35.2 5 34.7"/></g><g class="f"><polygon class="e" points="4.9 34.9 80.4 45.6 80.3 46 4.8 35.4 4.9 34.9"/></g><g class="f"><polygon class="e" points="4.9 35.2 80.3 45.8 80.2 46.2 4.8 35.6 4.9 35.2"/></g><g class="f"><polygon class="e" points="4.8 35.4 80.3 46 80.2 46.5 4.8 35.8 4.8 35.4"/></g><g class="f"><polygon class="e" points="4.8 35.6 80.2 46.2 80.2 46.7 4.8 36 4.8 35.6"/></g><g class="f"><polygon class="e" points="4.8 35.8 80.2 46.5 80.2 46.9 4.7 36.3 4.8 35.8"/></g><g class="f"><polygon class="e" points="4.8 36 80.2 46.7 80.2 47.1 4.7 36.5 4.8 36"/></g><g class="f"><polygon class="e" points="4.7 36.3 80.2 46.9 80.1 47.3 4.7 36.7 4.7 36.3"/></g><g class="f"><polygon class="e" points="4.7 36.5 80.2 47.1 80.1 47.6 4.6 36.9 4.7 36.5"/></g><g class="f"><polygon class="e" points="4.7 36.7 80.1 47.3 80 47.8 4.6 37.1 4.7 36.7"/></g><g class="f"><polygon class="e" points="4.6 36.9 80.1 47.6 80 48 4.6 37.3 4.6 36.9"/></g><g class="f"><polygon class="e" points="4.6 37.1 80 47.8 80 48.2 4.6 37.5 4.6 37.1"/></g><g class="f"><polygon class="e" points="4.6 37.3 80 48 80 48.4 4.5 37.7 4.6 37.3"/></g><g class="f"><polygon class="e" points="4.6 37.5 80 48.2 79.9 48.6 4.5 37.9 4.6 37.5"/></g><g class="f"><polygon class="e" points="4.5 37.7 80 48.4 79.9 48.8 4.4 38.1 4.5 37.7"/></g><g class="f"><polygon class="e" points="4.5 37.9 79.9 48.6 79.9 49 4.4 38.3 4.5 37.9"/></g><g class="f"><polygon class="e" points="4.4 38.1 79.9 48.8 79.8 49.2 4.4 38.5 4.4 38.1"/></g><g class="f"><polygon class="e" points="4.4 38.3 79.9 49 79.8 49.4 4.4 38.8 4.4 38.3"/></g><g class="f"><polygon class="e" points="4.4 38.5 79.8 49.2 79.8 49.6 4.4 39 4.4 38.5"/></g><g class="f"><polygon class="e" points="4.4 38.8 79.8 49.4 79.8 49.8 4.3 39.2 4.4 38.8"/></g><g class="f"><polygon class="e" points="4.4 39 79.8 49.6 79.7 50.1 4.3 39.4 4.4 39"/></g><g class="f"><polygon class="e" points="4.3 39.2 79.8 49.8 79.7 50.3 4.2 39.6 4.3 39.2"/></g><g class="f"><polygon class="e" points="4.3 39.4 79.7 50.1 79.6 50.5 4.2 39.8 4.3 39.4"/></g><g class="f"><polygon class="e" points="4.2 39.6 79.7 50.3 79.6 50.7 4.2 40.1 4.2 39.6"/></g><g class="f"><polygon class="e" points="4.2 39.8 79.6 50.5 79.6 50.9 4.2 40.3 4.2 39.8"/></g><g class="f"><polygon class="e" points="4.2 40.1 79.6 50.7 79.6 51.1 4.1 40.5 4.2 40.1"/></g><g class="f"><polygon class="e" points="4.2 40.3 79.6 50.9 79.6 51.4 4.1 40.7 4.2 40.3"/></g><g class="f"><polygon class="e" points="4.1 40.5 79.6 51.1 79.5 51.6 4.1 40.9 4.1 40.5"/></g><g class="f"><polygon class="e" points="4.1 40.7 79.6 51.4 79.5 51.8 4 41.1 4.1 40.7"/></g><g class="f"><polygon class="e" points="4.1 40.9 79.5 51.6 79.4 52 4 41.3 4.1 40.9"/></g><g class="f"><polygon class="e" points="4 41.1 79.5 51.8 79.4 52.2 4 41.5 4 41.1"/></g><g class="f"><polygon class="e" points="4 41.3 79.4 52 79.4 52.4 4 41.7 4 41.3"/></g><g class="f"><polygon class="e" points="4 41.5 79.4 52.2 79.4 52.6 3.9 41.9 4 41.5"/></g><g class="f"><polygon class="e" points="4 41.7 79.4 52.4 79.3 52.8 3.9 42.1 4 41.7"/></g><g class="f"><polygon class="e" points="3.9 41.9 79.4 52.6 79.3 53 3.8 42.3 3.9 41.9"/></g><g class="f"><polygon class="e" points="3.9 42.1 79.3 52.8 79.3 53.2 3.8 42.6 3.9 42.1"/></g><g class="f"><polygon class="e" points="3.8 42.3 79.3 53 79.2 53.4 3.8 42.8 3.8 42.3"/></g><g class="f"><polygon class="e" points="3.8 42.6 79.3 53.2 79.2 53.6 3.8 43 3.8 42.6"/></g><g class="f"><polygon class="e" points="3.8 42.8 79.2 53.4 79.2 53.9 3.8 43.2 3.8 42.8"/></g><g class="f"><polygon class="e" points="3.8 43 79.2 53.6 79.2 54.1 3.7 43.4 3.8 43"/></g><g class="f"><polygon class="e" points="3.8 43.2 79.2 53.9 79.1 54.3 3.7 43.6 3.8 43.2"/></g><g class="f"><polygon class="e" points="3.7 43.4 79.2 54.1 79.1 54.5 3.6 43.8 3.7 43.4"/></g><g class="f"><polygon class="e" points="3.7 43.6 79.1 54.3 79 54.7 3.6 44 3.7 43.6"/></g><g class="f"><polygon class="e" points="3.6 43.8 79.1 54.5 79 54.9 3.6 44.2 3.6 43.8"/></g><g class="f"><polygon class="e" points="3.6 44 79 54.7 79 55.1 3.6 44.4 3.6 44"/></g><g class="f"><polygon class="e" points="3.6 44.2 79 54.9 79 55.3 3.5 44.6 3.6 44.2"/></g><g class="f"><polygon class="e" points="3.6 44.4 79 55.1 79 55.5 3.5 44.9 3.6 44.4"/></g><g class="f"><polygon class="e" points="3.5 44.6 79 55.3 78.9 55.7 3.5 45.1 3.5 44.6"/></g><g class="f"><polygon class="e" points="3.5 44.9 79 55.5 78.9 55.9 3.4 45.3 3.5 44.9"/></g><g class="f"><polygon class="e" points="3.5 45.1 78.9 55.7 78.8 56.2 3.4 45.5 3.5 45.1"/></g><g class="f"><polygon class="e" points="3.4 45.3 78.9 55.9 78.8 56.4 3.4 45.7 3.4 45.3"/></g><g class="f"><polygon class="e" points="3.4 45.5 78.8 56.2 78.8 56.6 3.4 45.9 3.4 45.5"/></g><g class="f"><polygon class="e" points="3.4 45.7 78.8 56.4 78.8 56.8 3.3 46.2 3.4 45.7"/></g><g class="f"><polygon class="e" points="3.4 45.9 78.8 56.6 78.7 57 3.3 46.4 3.4 45.9"/></g><g class="f"><polygon class="e" points="3.3 46.2 78.8 56.8 78.7 57.2 3.2 46.6 3.3 46.2"/></g><g class="f"><polygon class="e" points="3.3 46.4 78.7 57 78.7 57.5 3.2 46.8 3.3 46.4"/></g><g class="f"><polygon class="e" points="3.2 46.6 78.7 57.2 78.6 57.7 3.2 47 3.2 46.6"/></g><g class="f"><polygon class="e" points="3.2 46.8 78.7 57.5 78.6 57.9 3.2 47.2 3.2 46.8"/></g><g class="f"><polygon class="e" points="3.2 47 78.6 57.7 78.6 58.1 3.2 47.4 3.2 47"/></g><g class="f"><polygon class="e" points="3.2 47.2 78.6 57.9 78.6 58.3 3.1 47.6 3.2 47.2"/></g><g class="f"><polygon class="e" points="3.2 47.4 78.6 58.1 78.5 58.5 3.1 47.8 3.2 47.4"/></g><g class="f"><polygon class="e" points="3.1 47.6 78.6 58.3 78.5 58.7 3 48 3.1 47.6"/></g><g class="f"><polygon class="e" points="3.1 47.8 78.5 58.5 78.4 58.9 3 48.2 3.1 47.8"/></g><g class="f"><polygon class="e" points="3 48 78.5 58.7 78.4 59.1 3 48.4 3 48"/></g><g class="f"><polygon class="e" points="3 48.2 78.4 58.9 78.4 59.3 3 48.7 3 48.2"/></g><g class="f"><polygon class="e" points="3 48.4 78.4 59.1 78.4 59.5 2.9 48.9 3 48.4"/></g><g class="f"><polygon class="e" points="3 48.7 78.4 59.3 78.4 59.7 2.9 49.1 3 48.7"/></g><g class="f"><polygon class="e" points="2.9 48.9 78.4 59.5 78.3 60 2.9 49.3 2.9 48.9"/></g><g class="f"><polygon class="e" points="2.9 49.1 78.4 59.7 78.3 60.2 2.8 49.5 2.9 49.1"/></g><g class="f"><polygon class="e" points="2.9 49.3 78.3 60 78.2 60.4 2.8 49.7 2.9 49.3"/></g><g class="f"><polygon class="e" points="2.8 49.5 78.3 60.2 78.2 60.6 2.8 50 2.8 49.5"/></g><g class="f"><polygon class="e" points="2.8 49.7 78.2 60.4 78.2 60.8 2.8 50.2 2.8 49.7"/></g><g class="f"><polygon class="e" points="2.8 50 78.2 60.6 78.2 61 2.7 50.4 2.8 50"/></g><g class="f"><polygon class="e" points="2.8 50.2 78.2 60.8 78.1 61.3 2.7 50.6 2.8 50.2"/></g><g class="f"><polygon class="e" points="2.7 50.4 78.2 61 78.1 61.5 2.6 50.8 2.7 50.4"/></g><g class="f"><polygon class="e" points="2.7 50.6 78.1 61.3 78.1 61.6 2.6 51 2.7 50.6"/></g><g class="f"><polygon class="e" points="2.6 50.8 78.1 61.5 78 61.9 2.6 51.2 2.6 50.8"/></g><g class="f"><polygon class="e" points="2.6 51 78.1 61.6 78 62 2.6 51.4 2.6 51"/></g><g class="f"><polygon class="e" points="2.6 51.2 78 61.9 78 62.2 2.6 51.6 2.6 51.2"/></g><g class="f"><polygon class="e" points="2.6 51.4 78 62 78 62.5 2.5 51.8 2.6 51.4"/></g><g class="f"><polygon class="e" points="2.6 51.6 78 62.2 77.9 62.7 2.5 52 2.6 51.6"/></g><g class="f"><polygon class="e" points="2.5 51.8 78 62.5 77.9 62.9 2.4 52.3 2.5 51.8"/></g><g class="f"><polygon class="e" points="2.5 52 77.9 62.7 77.8 63.1 2.4 52.5 2.5 52"/></g><g class="f"><polygon class="e" points="2.4 52.3 77.9 62.9 77.8 63.3 2.4 52.7 2.4 52.3"/></g><g class="f"><polygon class="e" points="2.4 52.5 77.8 63.1 77.8 63.6 2.4 52.9 2.4 52.5"/></g><g class="f"><polygon class="e" points="2.4 52.7 77.8 63.3 77.8 63.8 2.3 53.1 2.4 52.7"/></g><g class="f"><polygon class="e" points="2.4 52.9 77.8 63.6 77.8 64 2.3 53.3 2.4 52.9"/></g><g class="f"><polygon class="e" points="2.3 53.1 77.8 63.8 77.7 64.2 2.3 53.5 2.3 53.1"/></g><g class="f"><polygon class="e" points="2.3 53.3 77.8 64 77.7 64.4 2.2 53.7 2.3 53.3"/></g><g class="f"><polygon class="e" points="2.3 53.5 77.7 64.2 77.6 64.6 2.2 53.9 2.3 53.5"/></g><g class="f"><polygon class="e" points="2.2 53.7 77.7 64.4 77.6 64.8 2.2 54.1 2.2 53.7"/></g><g class="f"><polygon class="e" points="2.2 53.9 77.6 64.6 77.6 65 2.2 54.3 2.2 53.9"/></g><g class="f"><polygon class="e" points="2.2 54.1 77.6 64.8 77.6 65.2 2.1 54.5 2.2 54.1"/></g><g class="f"><polygon class="e" points="2.2 54.3 77.6 65 77.5 65.4 2.1 54.8 2.2 54.3"/></g><g class="f"><polygon class="e" points="2.1 54.5 77.6 65.2 77.5 65.6 2 55 2.1 54.5"/></g><g class="f"><polygon class="e" points="2.1 54.8 77.5 65.4 77.5 65.8 2 55.2 2.1 54.8"/></g><g class="f"><polygon class="e" points="2 55 77.5 65.6 77.4 66.1 2 55.4 2 55"/></g><g class="f"><polygon class="e" points="2 55.2 77.5 65.8 77.4 66.3 2 55.6 2 55.2"/></g><g class="f"><polygon class="e" points="2 55.4 77.4 66.1 77.4 66.5 2 55.8 2 55.4"/></g><g class="f"><polygon class="e" points="2 55.6 77.4 66.3 77.4 66.7 1.9 56.1 2 55.6"/></g><g class="f"><polygon class="e" points="2 55.8 77.4 66.5 77.3 66.9 1.9 56.3 2 55.8"/></g><g class="f"><polygon class="e" points="1.9 56.1 77.4 66.7 77.3 67.1 1.8 56.5 1.9 56.1"/></g><g class="f"><polygon class="e" points="1.9 56.3 77.3 66.9 77.2 67.4 1.8 56.7 1.9 56.3"/></g><g class="f"><polygon class="e" points="1.8 56.5 77.3 67.1 77.2 67.6 1.8 56.9 1.8 56.5"/></g><g class="f"><polygon class="e" points="1.8 56.7 77.2 67.4 77.2 67.8 1.8 57.1 1.8 56.7"/></g><g class="f"><polygon class="e" points="1.8 56.9 77.2 67.6 77.2 68 1.7 57.3 1.8 56.9"/></g><g class="f"><polygon class="e" points="1.8 57.1 77.2 67.8 77.2 68.2 1.7 57.5 1.8 57.1"/></g><g class="f"><polygon class="e" points="1.7 57.3 77.2 68 77.1 68.4 1.7 57.7 1.7 57.3"/></g><g class="f"><polygon class="e" points="1.7 57.5 77.2 68.2 77.1 68.6 1.6 57.9 1.7 57.5"/></g><g class="f"><polygon class="e" points="1.7 57.7 77.1 68.4 77 68.8 1.6 58.1 1.7 57.7"/></g><g class="f"><polygon class="e" points="1.6 57.9 77.1 68.6 77 69 1.6 58.4 1.6 57.9"/></g><g class="f"><polygon class="e" points="1.6 58.1 77 68.8 77 69.2 1.6 58.6 1.6 58.1"/></g><g class="f"><polygon class="e" points="1.6 58.4 77 69 77 69.4 1.5 58.8 1.6 58.4"/></g><g class="f"><polygon class="e" points="1.6 58.6 77 69.2 76.9 69.6 1.5 59 1.6 58.6"/></g><g class="f"><polygon class="e" points="1.5 58.8 77 69.4 76.9 69.9 1.4 59.2 1.5 58.8"/></g><g class="f"><polygon class="e" points="1.5 59 76.9 69.6 76.9 70.1 1.4 59.4 1.5 59"/></g><g class="f"><polygon class="e" points="1.4 59.2 76.9 69.9 76.8 70.3 1.4 59.7 1.4 59.2"/></g><g class="f"><polygon class="e" points="1.4 59.4 76.9 70.1 76.8 70.5 1.4 59.9 1.4 59.4"/></g><g class="f"><polygon class="e" points="1.4 59.7 76.8 70.3 76.8 70.7 1.4 60.1 1.4 59.7"/></g><g class="f"><polygon class="e" points="1.4 59.9 76.8 70.5 76.8 70.9 1.3 60.3 1.4 59.9"/></g><g class="f"><polygon class="e" points="1.4 60.1 76.8 70.7 76.7 71.1 1.3 60.5 1.4 60.1"/></g><g class="f"><polygon class="e" points="1.3 60.3 76.8 70.9 76.7 71.3 1.2 60.7 1.3 60.3"/></g><g class="f"><polygon class="e" points="1.3 60.5 76.7 71.1 76.6 71.5 1.2 60.9 1.3 60.5"/></g><g class="f"><polygon class="e" points="1.2 60.7 76.7 71.3 76.6 71.7 1.2 61.1 1.2 60.7"/></g><g class="f"><polygon class="e" points="1.2 60.9 76.6 71.5 76.6 71.9 1.2 61.3 1.2 60.9"/></g><g class="f"><polygon class="e" points="1.2 61.1 76.6 71.7 76.6 72.2 1.1 61.5 1.2 61.1"/></g><g class="f"><polygon class="e" points="1.2 61.3 76.6 71.9 76.6 72.4 1.1 61.7 1.2 61.3"/></g><g class="f"><polygon class="e" points="1.1 61.5 76.6 72.2 75.5 79.8 0 69.2 1.1 61.5"/></g><path class="b" d="M75.8,44.6V61.7L4.5,62.8V57.6H9L9.3,34.5l-4.9.3h0V33.2h0l4.7-.1,0.1-.9H4.5V31.5h0l4.9,0.1L8.7,10.3h6.8L16,24.2,15.6,34l-0.1-.1v2l0.1,12.4,0.5-4.8,1.1,14.1h4.7l2.8,0.1V57.4l1.3-.1-0.1-.4h0.7l0.3,0.3,0.7,0.6,25.5,0.7a24.44,24.44,0,0,1-9-1.9c-12.7-5.8-14.4-8.3-19.3-11.9l18,0.1,3.7-.5L54,44.6H75.8Z" transform="translate(3 11.7)"/></svg>