<?xml version="1.0" encoding="utf-8"?>
<!-- Generator: Adobe Illustrator 18.1.1, SVG Export Plug-In . SVG Version: 6.00 Build 0)  -->
<svg version="1.1" id="Camada_1" xmlns="http://www.w3.org/2000/svg" xmlns:xlink="http://www.w3.org/1999/xlink" x="0px" y="0px"
	 viewBox="0 0 298.5 80.6" enable-background="new 0 0 298.5 80.6" xml:space="preserve">
<g>
	<rect y="0.6" fill-rule="evenodd" clip-rule="evenodd" fill="#FFFFFF" width="298.5" height="80"/>
	<rect x="80.3" y="5.1" fill-rule="evenodd" clip-rule="evenodd" fill="#50B748" width="213.2" height="71"/>
	<g>
		<g>
			<path fill-rule="evenodd" clip-rule="evenodd" fill="#FFFFFF" d="M277.1,62c0,1.6-0.6,3-1.9,4.1c-1.3,1.1-2.9,1.6-4.9,1.6
				c-2.2,0-4.2-0.7-6-2l1.4-1.9c1.7,1.2,3.3,1.8,4.7,1.8c1.1,0,2-0.3,2.7-0.9c0.7-0.6,1-1.4,1-2.4c0-1.1-0.6-2.2-1.8-3.3
				c-0.3-0.3-1.5-1.3-3.7-2.9c-2.2-1.6-3.2-3.3-3.2-5c0-1.5,0.6-2.7,1.8-3.6c1.2-1,2.7-1.4,4.6-1.4c1.9,0,3.7,0.6,5.2,1.9l-1.6,1.7
				c-1.3-1-2.5-1.5-3.7-1.5c-0.9,0-1.7,0.3-2.3,0.8c-0.6,0.5-0.9,1.2-0.9,2c0,1,0.6,1.9,1.8,2.9c0.2,0.2,1.3,1,3.3,2.5
				c1.4,1,2.3,2,2.9,2.8C276.8,59.9,277.1,60.9,277.1,62L277.1,62z"/>
			<path fill-rule="evenodd" clip-rule="evenodd" fill="#FFFFFF" d="M256.4,49c-2-2-4.5-3-7.4-3c-3.1,0-5.7,1-7.6,3
				c-2,2-3,4.5-3,7.6c0,3.2,0.9,5.8,2.9,7.8c2,2.2,4.5,3.2,7.7,3.2c3.1,0,5.7-1.1,7.7-3.2c1.9-2.1,2.9-4.7,2.9-7.9
				C259.4,53.6,258.4,51,256.4,49z M254.1,63.2c-1.4,1.6-3.1,2.4-5.3,2.4c-2.3,0-4.2-0.9-5.5-2.7c-1.2-1.6-1.8-3.6-1.8-6
				c0-2.4,0.6-4.4,1.8-6c1.3-1.8,3.1-2.8,5.4-2.8c2.2,0,4,0.8,5.4,2.4c1.4,1.6,2,3.7,2,6.4C256.2,59.5,255.5,61.6,254.1,63.2z"/>
			<path fill-rule="evenodd" clip-rule="evenodd" fill="#FFFFFF" d="M230.1,48.5c-1-0.8-2.2-1.4-3.6-1.7c-1.4-0.3-3.3-0.5-5.8-0.5
				h-5.3v20.9h5.1c3.3,0,5.8-0.4,7.6-1.3c3.7-1.8,5.5-5.1,5.5-9.7C233.6,52.9,232.4,50.3,230.1,48.5z M227.6,63.5
				c-0.8,0.6-1.7,1.1-2.7,1.3c-1,0.2-2.5,0.4-4.4,0.4h-2.2V48.5h2.3c2.4,0,4.1,0.2,5.1,0.5c3.1,1,4.7,3.5,4.7,7.5
				C230.4,59.7,229.5,62,227.6,63.5z"/>
			<path fill-rule="evenodd" clip-rule="evenodd" fill="#FFFFFF" d="M203.2,46.4h-1.9l-8.6,20.9h2.6l2.3-6.1h8.2l2.1,6.1h3.2
				L203.2,46.4z M198.3,59.1l3.5-9l3.2,9H198.3z"/>
			<polygon fill-rule="evenodd" clip-rule="evenodd" fill="#FFFFFF" points="190.7,48.5 183.9,48.5 183.9,67.3 181,67.3 181,48.5 
				174.3,48.5 174.3,46.4 190.7,46.4 190.7,48.5 			"/>
			<path fill-rule="evenodd" clip-rule="evenodd" fill="#FFFFFF" d="M170.1,58.2c0,1.9-0.1,3.3-0.3,4.2c-0.2,0.9-0.7,1.7-1.3,2.5
				c-1.5,1.8-3.7,2.7-6.6,2.7c-3.4,0-5.8-1.2-7.1-3.6c-0.4-0.8-0.7-1.8-0.8-3c-0.1-0.6-0.1-1.6-0.1-3.1V46.4h2.9v11.7
				c0,1.4,0,2.4,0.1,3c0.2,1.1,0.5,2,1.1,2.7c0.9,1.2,2.3,1.8,4.1,1.8c2.4,0,4-1,4.8-2.9c0.4-0.9,0.5-2.4,0.5-4.7V46.4h2.7V58.2
				L170.1,58.2z"/>
			<path fill-rule="evenodd" clip-rule="evenodd" fill="#FFFFFF" d="M148.6,52.2c0,2-0.7,3.7-2.2,5c-1.5,1.3-3.4,1.9-5.9,2v-1.9
				c1.4-0.1,2.5-0.4,3.3-0.9c1.2-0.8,1.7-2,1.7-3.8c0-1.8-0.6-3-1.9-3.6c-0.7-0.3-1.8-0.5-3.2-0.5h-1.4v18.8h-2.9V46.4h4.3
				c2.6,0,4.5,0.4,5.6,1C147.8,48.4,148.6,50,148.6,52.2L148.6,52.2z"/>
			<polygon fill-rule="evenodd" clip-rule="evenodd" fill="#FFFFFF" points="131.1,67.3 119.3,67.3 119.3,46.4 129.8,46.4 
				129.8,48.5 122.2,48.5 122.2,55.2 129.6,55.2 129.6,57.4 122.2,57.4 122.2,65.2 131.1,65.2 131.1,67.3 			"/>
			<path fill-rule="evenodd" clip-rule="evenodd" fill="#FFFFFF" d="M109.9,48.5c-1-0.8-2.2-1.4-3.6-1.7c-1.3-0.3-3.3-0.5-5.8-0.5
				h-5.3v20.9h5.1c3.3,0,5.8-0.4,7.6-1.3c3.7-1.8,5.5-5.1,5.5-9.7C113.5,52.9,112.3,50.3,109.9,48.5z M107.5,63.5
				c-0.8,0.6-1.7,1.1-2.7,1.3c-1,0.2-2.5,0.4-4.4,0.4h-2.2V48.5h2.3c2.4,0,4.1,0.2,5.1,0.5c3.1,1,4.7,3.5,4.7,7.5
				C110.3,59.7,109.4,62,107.5,63.5z"/>
		</g>
		<g>
			<path fill-rule="evenodd" clip-rule="evenodd" fill="#FFFFFF" d="M276.9,32.5c0,1.5-0.6,2.7-1.7,3.7c-1.2,1-2.6,1.4-4.4,1.4
				c-2,0-3.8-0.6-5.4-1.8l1.2-1.8c1.5,1.1,2.9,1.6,4.2,1.6c1,0,1.8-0.3,2.4-0.8c0.6-0.5,0.9-1.3,0.9-2.2c0-1-0.5-2-1.6-2.9
				c-0.3-0.3-1.4-1.1-3.3-2.6c-1.9-1.4-2.9-2.9-2.9-4.5c0-1.3,0.5-2.4,1.6-3.3c1.1-0.9,2.4-1.3,4.1-1.3c1.7,0,3.3,0.6,4.7,1.7
				l-1.4,1.5c-1.2-0.9-2.3-1.3-3.4-1.3c-0.8,0-1.5,0.2-2.1,0.7c-0.5,0.5-0.8,1.1-0.8,1.8c0,0.9,0.5,1.7,1.6,2.6
				c0.2,0.2,1.2,0.9,3,2.3c1.2,0.9,2.1,1.8,2.6,2.5C276.6,30.6,276.9,31.5,276.9,32.5L276.9,32.5z"/>
			<path fill-rule="evenodd" clip-rule="evenodd" fill="#FFFFFF" d="M258.2,20.8c-1.8-1.8-4-2.7-6.7-2.7c-2.8,0-5.1,0.9-6.9,2.7
				c-1.8,1.8-2.7,4.1-2.7,6.9c0,2.8,0.9,5.2,2.6,7.1c1.8,1.9,4.1,2.9,6.9,2.9c2.8,0,5.1-1,6.9-2.9c1.7-1.9,2.6-4.2,2.6-7.1
				C260.9,24.9,260,22.6,258.2,20.8z M256.2,33.6c-1.2,1.4-2.8,2.2-4.7,2.2c-2.1,0-3.8-0.8-5-2.4c-1.1-1.5-1.6-3.3-1.6-5.4
				c0-2.1,0.5-3.9,1.6-5.4c1.2-1.7,2.8-2.5,4.9-2.5c2,0,3.6,0.7,4.9,2.2c1.2,1.4,1.8,3.4,1.8,5.8C258,30.2,257.4,32.1,256.2,33.6z"
				/>
			<path fill-rule="evenodd" clip-rule="evenodd" fill="#FFFFFF" d="M234.5,20.3c-0.9-0.7-2-1.2-3.2-1.5c-1.2-0.3-3-0.4-5.2-0.4
				h-4.8v18.9h4.6c2.9,0,5.2-0.4,6.8-1.2c3.3-1.7,5-4.6,5-8.7C237.7,24.3,236.6,22,234.5,20.3z M232.2,33.9c-0.7,0.6-1.6,1-2.5,1.2
				c-0.9,0.2-2.2,0.3-3.9,0.3h-1.9V20.3h2.1c2.2,0,3.7,0.2,4.6,0.5c2.8,0.9,4.2,3.2,4.2,6.8C234.8,30.4,233.9,32.5,232.2,33.9z"/>
			<path fill-rule="evenodd" clip-rule="evenodd" fill="#FFFFFF" d="M203.2,18.4h-1.7l-7.8,18.9h2.4l2.1-5.5h7.4l1.9,5.5h2.9
				L203.2,18.4z M198.8,29.9l3.1-8.1l2.9,8.1H198.8z"/>
			<path fill-rule="evenodd" clip-rule="evenodd" fill="#FFFFFF" d="M187,28.8c2.1-1.3,3.2-3.1,3.2-5.4c0-1.7-0.6-3-1.8-3.9
				c-0.9-0.7-2.4-1-4.7-1h-4.4v18.9h2.6v-7.8h2.8l4.4,8.1l2.7-0.8L187,28.8z M183.1,27.6h-1.2v-7.2h1.7c1.2,0,2.1,0.2,2.6,0.5
				c0.8,0.6,1.2,1.5,1.2,2.7c0,1.2-0.3,2.2-1,2.9C185.7,27.2,184.6,27.6,183.1,27.6z"/>
			<path fill-rule="evenodd" clip-rule="evenodd" fill="#FFFFFF" d="M168.2,18.4h-1.7l-7.8,18.9h2.4l2.1-5.5h7.4l1.9,5.5h2.9
				L168.2,18.4z M163.9,29.9l3.1-8.1l2.9,8.1H163.9z"/>
			<path fill-rule="evenodd" clip-rule="evenodd" fill="#FFFFFF" d="M154.8,37.3h-2.6v-11c0-0.9,0.1-2.5,0.2-4.7
				c-0.5,1.5-1.1,2.8-1.8,4.2l-5.6,11.5h-1.2l-5.4-11.5c-0.2-0.4-0.8-1.8-1.7-4.2c0.1,1.9,0.2,3.5,0.2,4.7v11h-2.1V18.4h2.8
				l7.1,15.4l7.6-15.4h2.6V37.3L154.8,37.3z"/>
			<path fill-rule="evenodd" clip-rule="evenodd" fill="#FFFFFF" d="M123.6,18.4h-1.7l-7.8,18.9h2.4l2.1-5.5h7.4l1.9,5.5h2.9
				L123.6,18.4z M119.3,29.9l3.1-8.1l2.9,8.1H119.3z"/>
			<polygon fill-rule="evenodd" clip-rule="evenodd" fill="#FFFFFF" points="126.7,17.2 125.4,17.2 122.6,14.5 119.7,17.2 
				118.4,17.2 121.8,12.6 123.4,12.6 126.7,17.2 			"/>
			<path fill-rule="evenodd" clip-rule="evenodd" fill="#FFFFFF" d="M111.6,20l-1.1,1.6c-1.6-1.1-3.3-1.6-5-1.6
				c-2.2,0-4,0.7-5.3,2.1c-1.4,1.4-2,3.3-2,5.6c0,2.3,0.7,4.2,2.1,5.7c1.4,1.5,3.2,2.3,5.4,2.3c1.7,0,3.2-0.5,4.7-1.4l1,1.5
				c-1.7,1.2-3.8,1.7-6.1,1.7c-2.9,0-5.3-0.9-7.2-2.7c-1.9-1.8-2.8-4.1-2.8-6.9c0-2.8,1-5.2,3-7.1c2-1.9,4.4-2.8,7.4-2.8
				C107.7,18.1,109.7,18.7,111.6,20L111.6,20z"/>
		</g>
	</g>
	<g>
		<polygon fill-rule="evenodd" clip-rule="evenodd" fill="#50B748" points="75.8,61.6 75.8,76.1 4.5,76.1 4.5,62.7 		"/>
		<g>
			<g>
				<defs>
					<path id="SVGID_3_" d="M6.9,5.1h68.9v39.5l-21.7,0.1l-7.5-0.3l-3.7,0.5l-18-0.1c4.9,3.6,6.6,6,19.3,11.9c3.3,1.5,7.3,1.7,9,1.9
						l-25.5-0.7l-0.7-0.6l-0.3-0.3h-0.7l0.1,0.4l-1.3,0.1v0.3l-2.8-0.1h-4.7l-1.1-14.1l-0.5,4.8l-0.1-12.4v-0.5v-0.8v-0.7l0.1,0.1
						l0.4-9.8l-0.5-13.9H8.7l0.7,21.2l-2.5-0.1V5.1L6.9,5.1z M6.9,57.5h2.1l0.3-23.1l-2.5,0.1V57.5L6.9,57.5z M6.9,33.1h2.3l0.1-0.9
						H6.9V33.1z M4.5,5.1h2.4v26.3H4.5V5.1L4.5,5.1z M6.9,32.1v0.9l-2.4,0.1v-1H6.9L6.9,32.1z M6.9,34.5v23H4.5l0,0l0,0V34.7
						L6.9,34.5z"/>
				</defs>
				<use xlink:href="#SVGID_3_"  overflow="visible" fill-rule="evenodd" clip-rule="evenodd" fill="#0094D9"/>
				<clipPath id="SVGID_2_">
					<use xlink:href="#SVGID_3_"  overflow="visible"/>
				</clipPath>
				<polygon clip-path="url(#SVGID_2_)" fill-rule="evenodd" clip-rule="evenodd" fill="#0094D9" points="6.9,-11.7 82.4,-1.1 
					81.2,6.8 5.8,-3.9 				"/>
				<polygon clip-path="url(#SVGID_2_)" fill-rule="evenodd" clip-rule="evenodd" fill="#0094D9" points="5.9,-4.1 81.2,6.6 81.2,7 
					5.8,-3.7 				"/>
				<polygon clip-path="url(#SVGID_2_)" fill-rule="evenodd" clip-rule="evenodd" fill="#0094D9" points="5.8,-3.9 81.2,6.8 
					81.2,7.2 5.7,-3.5 				"/>
				<polygon clip-path="url(#SVGID_2_)" fill-rule="evenodd" clip-rule="evenodd" fill="#0094D9" points="5.8,-3.7 81.2,7 81.1,7.4 
					5.7,-3.3 				"/>
				<polygon clip-path="url(#SVGID_2_)" fill-rule="evenodd" clip-rule="evenodd" fill="#0094D9" points="5.7,-3.5 81.2,7.2 
					81.1,7.6 5.7,-3.1 				"/>
				<polygon clip-path="url(#SVGID_2_)" fill-rule="evenodd" clip-rule="evenodd" fill="#0094D9" points="5.7,-3.3 81.1,7.4 
					81.1,7.8 5.7,-2.9 				"/>
				<polygon clip-path="url(#SVGID_2_)" fill-rule="evenodd" clip-rule="evenodd" fill="#0094D9" points="5.7,-3.1 81.1,7.6 81,8 
					5.6,-2.7 				"/>
				<polygon clip-path="url(#SVGID_2_)" fill-rule="evenodd" clip-rule="evenodd" fill="#0094D9" points="5.7,-2.9 81.1,7.8 81,8.2 
					5.6,-2.4 				"/>
				<polygon clip-path="url(#SVGID_2_)" fill-rule="evenodd" clip-rule="evenodd" fill="#0094D9" points="5.6,-2.7 81,8 81,8.4 
					5.6,-2.2 				"/>
				<polygon clip-path="url(#SVGID_2_)" fill-rule="evenodd" clip-rule="evenodd" fill="#0094D9" points="5.6,-2.4 81,8.2 81,8.6 
					5.5,-2 				"/>
				<polygon clip-path="url(#SVGID_2_)" fill-rule="evenodd" clip-rule="evenodd" fill="#0094D9" points="5.6,-2.2 81,8.4 80.9,8.9 
					5.5,-1.8 				"/>
				<polygon clip-path="url(#SVGID_2_)" fill-rule="evenodd" clip-rule="evenodd" fill="#0094D9" points="5.5,-2 81,8.6 80.9,9.1 
					5.5,-1.6 				"/>
				<polygon clip-path="url(#SVGID_2_)" fill-rule="evenodd" clip-rule="evenodd" fill="#0094D9" points="5.5,-1.8 80.9,8.9 
					80.8,9.3 5.5,-1.4 				"/>
				<polygon clip-path="url(#SVGID_2_)" fill-rule="evenodd" clip-rule="evenodd" fill="#0094D9" points="5.5,-1.6 80.9,9.1 
					80.8,9.5 5.4,-1.1 				"/>
				<polygon clip-path="url(#SVGID_2_)" fill-rule="evenodd" clip-rule="evenodd" fill="#0094D9" points="5.5,-1.4 80.8,9.3 
					80.8,9.7 5.4,-0.9 				"/>
				<polygon clip-path="url(#SVGID_2_)" fill-rule="evenodd" clip-rule="evenodd" fill="#0094D9" points="5.4,-1.1 80.8,9.5 
					80.8,9.9 5.3,-0.7 				"/>
				<polygon clip-path="url(#SVGID_2_)" fill-rule="evenodd" clip-rule="evenodd" fill="#0094D9" points="5.4,-0.9 80.8,9.7 
					80.8,10.2 5.3,-0.5 				"/>
				<polygon clip-path="url(#SVGID_2_)" fill-rule="evenodd" clip-rule="evenodd" fill="#0094D9" points="5.3,-0.7 80.8,9.9 
					80.7,10.4 5.3,-0.3 				"/>
				<polygon clip-path="url(#SVGID_2_)" fill-rule="evenodd" clip-rule="evenodd" fill="#0094D9" points="5.3,-0.5 80.8,10.2 
					80.7,10.6 5.2,-0.1 				"/>
				<polygon clip-path="url(#SVGID_2_)" fill-rule="evenodd" clip-rule="evenodd" fill="#0094D9" points="5.3,-0.3 80.7,10.4 
					80.6,10.8 5.2,0.1 				"/>
				<polygon clip-path="url(#SVGID_2_)" fill-rule="evenodd" clip-rule="evenodd" fill="#0094D9" points="5.2,-0.1 80.7,10.6 
					80.6,11 5.2,0.3 				"/>
				<polygon clip-path="url(#SVGID_2_)" fill-rule="evenodd" clip-rule="evenodd" fill="#0094D9" points="5.2,0.1 80.6,10.8 
					80.6,11.2 5.2,0.5 				"/>
				<polygon clip-path="url(#SVGID_2_)" fill-rule="evenodd" clip-rule="evenodd" fill="#0094D9" points="5.2,0.3 80.6,11 
					80.6,11.4 5.1,0.7 				"/>
				<polygon clip-path="url(#SVGID_2_)" fill-rule="evenodd" clip-rule="evenodd" fill="#0094D9" points="5.2,0.5 80.6,11.2 
					80.5,11.6 5.1,0.9 				"/>
				<polygon clip-path="url(#SVGID_2_)" fill-rule="evenodd" clip-rule="evenodd" fill="#0094D9" points="5.1,0.7 80.6,11.4 
					80.5,11.8 5.1,1.1 				"/>
				<polygon clip-path="url(#SVGID_2_)" fill-rule="evenodd" clip-rule="evenodd" fill="#0094D9" points="5.1,0.9 80.5,11.6 
					80.5,12 5.1,1.4 				"/>
				<polygon clip-path="url(#SVGID_2_)" fill-rule="evenodd" clip-rule="evenodd" fill="#0094D9" points="5.1,1.1 80.5,11.8 
					80.4,12.2 5,1.6 				"/>
				<polygon clip-path="url(#SVGID_2_)" fill-rule="evenodd" clip-rule="evenodd" fill="#0094D9" points="5.1,1.4 80.5,12 
					80.4,12.4 5,1.8 				"/>
				<polygon clip-path="url(#SVGID_2_)" fill-rule="evenodd" clip-rule="evenodd" fill="#0094D9" points="5,1.6 80.4,12.2 
					80.4,12.7 5,2 				"/>
				<polygon clip-path="url(#SVGID_2_)" fill-rule="evenodd" clip-rule="evenodd" fill="#0094D9" points="5,1.8 80.4,12.4 
					80.4,12.9 4.9,2.2 				"/>
				<polygon clip-path="url(#SVGID_2_)" fill-rule="evenodd" clip-rule="evenodd" fill="#0094D9" points="5,2 80.4,12.7 80.3,13.1 
					4.9,2.5 				"/>
				<polygon clip-path="url(#SVGID_2_)" fill-rule="evenodd" clip-rule="evenodd" fill="#0094D9" points="4.9,2.2 80.4,12.9 
					80.3,13.3 4.9,2.7 				"/>
				<polygon clip-path="url(#SVGID_2_)" fill-rule="evenodd" clip-rule="evenodd" fill="#0094D9" points="4.9,2.5 80.3,13.1 
					80.2,13.5 4.9,2.9 				"/>
				<polygon clip-path="url(#SVGID_2_)" fill-rule="evenodd" clip-rule="evenodd" fill="#0094D9" points="4.9,2.7 80.3,13.3 
					80.2,13.8 4.8,3.1 				"/>
				<polygon clip-path="url(#SVGID_2_)" fill-rule="evenodd" clip-rule="evenodd" fill="#0094D9" points="4.9,2.9 80.2,13.5 
					80.2,14 4.8,3.3 				"/>
				<polygon clip-path="url(#SVGID_2_)" fill-rule="evenodd" clip-rule="evenodd" fill="#0094D9" points="4.8,3.1 80.2,13.8 
					80.2,14.1 4.7,3.5 				"/>
				<polygon clip-path="url(#SVGID_2_)" fill-rule="evenodd" clip-rule="evenodd" fill="#0094D9" points="4.8,3.3 80.2,14 
					80.2,14.3 4.7,3.7 				"/>
				<polygon clip-path="url(#SVGID_2_)" fill-rule="evenodd" clip-rule="evenodd" fill="#0094D9" points="4.7,3.5 80.2,14.1 
					80.1,14.5 4.7,3.9 				"/>
				<polygon clip-path="url(#SVGID_2_)" fill-rule="evenodd" clip-rule="evenodd" fill="#0094D9" points="4.7,3.7 80.2,14.3 
					80.1,14.7 4.7,4.1 				"/>
				<polygon clip-path="url(#SVGID_2_)" fill-rule="evenodd" clip-rule="evenodd" fill="#0094D9" points="4.7,3.9 80.1,14.5 80,15 
					4.7,4.3 				"/>
				<polygon clip-path="url(#SVGID_2_)" fill-rule="evenodd" clip-rule="evenodd" fill="#0094D9" points="4.7,4.1 80.1,14.7 
					80,15.2 4.6,4.5 				"/>
				<polygon clip-path="url(#SVGID_2_)" fill-rule="evenodd" clip-rule="evenodd" fill="#0094D9" points="4.7,4.3 80,15 80,15.4 
					4.6,4.7 				"/>
				<polygon clip-path="url(#SVGID_2_)" fill-rule="evenodd" clip-rule="evenodd" fill="#0094D9" points="4.6,4.5 80,15.2 80,15.6 
					4.5,5 				"/>
				<polygon clip-path="url(#SVGID_2_)" fill-rule="evenodd" clip-rule="evenodd" fill="#0094D9" points="4.6,4.7 80,15.4 
					79.9,15.8 4.5,5.2 				"/>
				<polygon clip-path="url(#SVGID_2_)" fill-rule="evenodd" clip-rule="evenodd" fill="#0094D9" points="4.5,5 80,15.6 79.9,16 
					4.4,5.4 				"/>
				<polygon clip-path="url(#SVGID_2_)" fill-rule="evenodd" clip-rule="evenodd" fill="#0094D9" points="4.5,5.2 79.9,15.8 
					79.9,16.3 4.4,5.6 				"/>
				<polygon clip-path="url(#SVGID_2_)" fill-rule="evenodd" clip-rule="evenodd" fill="#0094D9" points="4.4,5.4 79.9,16 
					79.8,16.5 4.4,5.8 				"/>
				<polygon clip-path="url(#SVGID_2_)" fill-rule="evenodd" clip-rule="evenodd" fill="#0094D9" points="4.4,5.6 79.9,16.3 
					79.8,16.7 4.4,6 				"/>
				<polygon clip-path="url(#SVGID_2_)" fill-rule="evenodd" clip-rule="evenodd" fill="#0094D9" points="4.4,5.8 79.8,16.5 
					79.8,16.9 4.4,6.2 				"/>
				<polygon clip-path="url(#SVGID_2_)" fill-rule="evenodd" clip-rule="evenodd" fill="#0094D9" points="4.4,6 79.8,16.7 
					79.8,17.1 4.3,6.4 				"/>
				<polygon clip-path="url(#SVGID_2_)" fill-rule="evenodd" clip-rule="evenodd" fill="#0094D9" points="4.4,6.2 79.8,16.9 
					79.7,17.3 4.3,6.6 				"/>
				<polygon clip-path="url(#SVGID_2_)" fill-rule="evenodd" clip-rule="evenodd" fill="#0094D9" points="4.3,6.4 79.8,17.1 
					79.7,17.5 4.2,6.8 				"/>
				<polygon clip-path="url(#SVGID_2_)" fill-rule="evenodd" clip-rule="evenodd" fill="#0094D9" points="4.3,6.6 79.7,17.3 
					79.6,17.7 4.2,7 				"/>
				<polygon clip-path="url(#SVGID_2_)" fill-rule="evenodd" clip-rule="evenodd" fill="#0094D9" points="4.2,6.8 79.7,17.5 
					79.6,17.9 4.2,7.2 				"/>
				<polygon clip-path="url(#SVGID_2_)" fill-rule="evenodd" clip-rule="evenodd" fill="#0094D9" points="4.2,7 79.6,17.7 
					79.6,18.1 4.2,7.5 				"/>
				<polygon clip-path="url(#SVGID_2_)" fill-rule="evenodd" clip-rule="evenodd" fill="#0094D9" points="4.2,7.2 79.6,17.9 
					79.6,18.3 4.1,7.7 				"/>
				<polygon clip-path="url(#SVGID_2_)" fill-rule="evenodd" clip-rule="evenodd" fill="#0094D9" points="4.2,7.5 79.6,18.1 
					79.6,18.5 4.1,7.9 				"/>
				<polygon clip-path="url(#SVGID_2_)" fill-rule="evenodd" clip-rule="evenodd" fill="#0094D9" points="4.1,7.7 79.6,18.3 
					79.5,18.8 4.1,8.1 				"/>
				<polygon clip-path="url(#SVGID_2_)" fill-rule="evenodd" clip-rule="evenodd" fill="#0094D9" points="4.1,7.9 79.6,18.5 
					79.5,19 4.1,8.3 				"/>
				<polygon clip-path="url(#SVGID_2_)" fill-rule="evenodd" clip-rule="evenodd" fill="#0094D9" points="4.1,8.1 79.5,18.8 
					79.4,19.2 4.1,8.5 				"/>
				<polygon clip-path="url(#SVGID_2_)" fill-rule="evenodd" clip-rule="evenodd" fill="#0094D9" points="4.1,8.3 79.5,19 
					79.4,19.4 4,8.8 				"/>
				<polygon clip-path="url(#SVGID_2_)" fill-rule="evenodd" clip-rule="evenodd" fill="#0094D9" points="4.1,8.5 79.4,19.2 
					79.4,19.6 4,9 				"/>
				<polygon clip-path="url(#SVGID_2_)" fill-rule="evenodd" clip-rule="evenodd" fill="#0094D9" points="4,8.8 79.4,19.4 
					79.4,19.8 3.9,9.2 				"/>
				<polygon clip-path="url(#SVGID_2_)" fill-rule="evenodd" clip-rule="evenodd" fill="#0094D9" points="4,9 79.4,19.6 79.3,20.1 
					3.9,9.4 				"/>
				<polygon clip-path="url(#SVGID_2_)" fill-rule="evenodd" clip-rule="evenodd" fill="#0094D9" points="3.9,9.2 79.4,19.8 
					79.3,20.3 3.8,9.6 				"/>
				<polygon clip-path="url(#SVGID_2_)" fill-rule="evenodd" clip-rule="evenodd" fill="#0094D9" points="3.9,9.4 79.3,20.1 
					79.3,20.5 3.8,9.8 				"/>
				<polygon clip-path="url(#SVGID_2_)" fill-rule="evenodd" clip-rule="evenodd" fill="#0094D9" points="3.8,9.6 79.3,20.3 
					79.2,20.7 3.8,10 				"/>
				<polygon clip-path="url(#SVGID_2_)" fill-rule="evenodd" clip-rule="evenodd" fill="#0094D9" points="3.8,9.8 79.3,20.5 
					79.2,20.9 3.8,10.2 				"/>
				<polygon clip-path="url(#SVGID_2_)" fill-rule="evenodd" clip-rule="evenodd" fill="#0094D9" points="3.8,10 79.2,20.7 
					79.2,21.1 3.8,10.4 				"/>
				<polygon clip-path="url(#SVGID_2_)" fill-rule="evenodd" clip-rule="evenodd" fill="#0094D9" points="3.8,10.2 79.2,20.9 
					79.2,21.3 3.7,10.6 				"/>
				<polygon clip-path="url(#SVGID_2_)" fill-rule="evenodd" clip-rule="evenodd" fill="#0094D9" points="3.8,10.4 79.2,21.1 
					79.1,21.5 3.7,10.8 				"/>
				<polygon clip-path="url(#SVGID_2_)" fill-rule="evenodd" clip-rule="evenodd" fill="#0094D9" points="3.7,10.6 79.2,21.3 
					79.1,21.7 3.6,11.1 				"/>
				<polygon clip-path="url(#SVGID_2_)" fill-rule="evenodd" clip-rule="evenodd" fill="#0094D9" points="3.7,10.8 79.1,21.5 
					79,21.9 3.6,11.3 				"/>
				<polygon clip-path="url(#SVGID_2_)" fill-rule="evenodd" clip-rule="evenodd" fill="#0094D9" points="3.6,11.1 79.1,21.7 
					79,22.1 3.6,11.5 				"/>
				<polygon clip-path="url(#SVGID_2_)" fill-rule="evenodd" clip-rule="evenodd" fill="#0094D9" points="3.6,11.3 79,21.9 79,22.4 
					3.6,11.7 				"/>
				<polygon clip-path="url(#SVGID_2_)" fill-rule="evenodd" clip-rule="evenodd" fill="#0094D9" points="3.6,11.5 79,22.1 79,22.6 
					3.5,11.9 				"/>
				<polygon clip-path="url(#SVGID_2_)" fill-rule="evenodd" clip-rule="evenodd" fill="#0094D9" points="3.6,11.7 79,22.4 79,22.8 
					3.5,12.1 				"/>
				<polygon clip-path="url(#SVGID_2_)" fill-rule="evenodd" clip-rule="evenodd" fill="#0094D9" points="3.5,11.9 79,22.6 78.9,23 
					3.5,12.4 				"/>
				<polygon clip-path="url(#SVGID_2_)" fill-rule="evenodd" clip-rule="evenodd" fill="#0094D9" points="3.5,12.1 79,22.8 
					78.9,23.2 3.4,12.6 				"/>
				<polygon clip-path="url(#SVGID_2_)" fill-rule="evenodd" clip-rule="evenodd" fill="#0094D9" points="3.5,12.4 78.9,23 
					78.8,23.4 3.4,12.8 				"/>
				<polygon clip-path="url(#SVGID_2_)" fill-rule="evenodd" clip-rule="evenodd" fill="#0094D9" points="3.4,12.6 78.9,23.2 
					78.8,23.6 3.4,13 				"/>
				<polygon clip-path="url(#SVGID_2_)" fill-rule="evenodd" clip-rule="evenodd" fill="#0094D9" points="3.4,12.8 78.8,23.4 
					78.8,23.8 3.4,13.2 				"/>
				<polygon clip-path="url(#SVGID_2_)" fill-rule="evenodd" clip-rule="evenodd" fill="#0094D9" points="3.4,13 78.8,23.6 78.8,24 
					3.3,13.4 				"/>
				<polygon clip-path="url(#SVGID_2_)" fill-rule="evenodd" clip-rule="evenodd" fill="#0094D9" points="3.4,13.2 78.8,23.8 
					78.7,24.2 3.3,13.6 				"/>
				<polygon clip-path="url(#SVGID_2_)" fill-rule="evenodd" clip-rule="evenodd" fill="#0094D9" points="3.3,13.4 78.8,24 
					78.7,24.4 3.2,13.8 				"/>
				<polygon clip-path="url(#SVGID_2_)" fill-rule="evenodd" clip-rule="evenodd" fill="#0094D9" points="3.3,13.6 78.7,24.2 
					78.7,24.6 3.2,14 				"/>
				<polygon clip-path="url(#SVGID_2_)" fill-rule="evenodd" clip-rule="evenodd" fill="#0094D9" points="3.2,13.8 78.7,24.4 
					78.6,24.9 3.2,14.2 				"/>
				<polygon clip-path="url(#SVGID_2_)" fill-rule="evenodd" clip-rule="evenodd" fill="#0094D9" points="3.2,14 78.7,24.6 
					78.6,25.1 3.2,14.4 				"/>
				<polygon clip-path="url(#SVGID_2_)" fill-rule="evenodd" clip-rule="evenodd" fill="#0094D9" points="3.2,14.2 78.6,24.9 
					78.6,25.3 3.2,14.6 				"/>
				<polygon clip-path="url(#SVGID_2_)" fill-rule="evenodd" clip-rule="evenodd" fill="#0094D9" points="3.2,14.4 78.6,25.1 
					78.6,25.5 3.1,14.9 				"/>
				<polygon clip-path="url(#SVGID_2_)" fill-rule="evenodd" clip-rule="evenodd" fill="#0094D9" points="3.2,14.6 78.6,25.3 
					78.5,25.7 3.1,15.1 				"/>
				<polygon clip-path="url(#SVGID_2_)" fill-rule="evenodd" clip-rule="evenodd" fill="#0094D9" points="3.1,14.9 78.6,25.5 
					78.5,25.9 3.1,15.3 				"/>
				<polygon clip-path="url(#SVGID_2_)" fill-rule="evenodd" clip-rule="evenodd" fill="#0094D9" points="3.1,15.1 78.5,25.7 
					78.4,26.2 3.1,15.5 				"/>
				<polygon clip-path="url(#SVGID_2_)" fill-rule="evenodd" clip-rule="evenodd" fill="#0094D9" points="3.1,15.3 78.5,25.9 
					78.4,26.4 3,15.7 				"/>
				<polygon clip-path="url(#SVGID_2_)" fill-rule="evenodd" clip-rule="evenodd" fill="#0094D9" points="3.1,15.5 78.4,26.2 
					78.4,26.6 3,15.9 				"/>
				<polygon clip-path="url(#SVGID_2_)" fill-rule="evenodd" clip-rule="evenodd" fill="#0094D9" points="3,15.7 78.4,26.4 
					78.4,26.8 2.9,16.1 				"/>
				<polygon clip-path="url(#SVGID_2_)" fill-rule="evenodd" clip-rule="evenodd" fill="#0094D9" points="3,15.9 78.4,26.6 78.4,27 
					2.9,16.3 				"/>
				<polygon clip-path="url(#SVGID_2_)" fill-rule="evenodd" clip-rule="evenodd" fill="#0094D9" points="2.9,16.1 78.4,26.8 
					78.3,27.2 2.9,16.5 				"/>
				<polygon clip-path="url(#SVGID_2_)" fill-rule="evenodd" clip-rule="evenodd" fill="#0094D9" points="2.9,16.3 78.4,27 
					78.3,27.4 2.8,16.7 				"/>
				<polygon clip-path="url(#SVGID_2_)" fill-rule="evenodd" clip-rule="evenodd" fill="#0094D9" points="2.9,16.5 78.3,27.2 
					78.2,27.6 2.8,16.9 				"/>
				<polygon clip-path="url(#SVGID_2_)" fill-rule="evenodd" clip-rule="evenodd" fill="#0094D9" points="2.8,16.7 78.3,27.4 
					78.2,27.8 2.8,17.2 				"/>
				<polygon clip-path="url(#SVGID_2_)" fill-rule="evenodd" clip-rule="evenodd" fill="#0094D9" points="2.8,16.9 78.2,27.6 
					78.2,28 2.8,17.4 				"/>
				<polygon clip-path="url(#SVGID_2_)" fill-rule="evenodd" clip-rule="evenodd" fill="#0094D9" points="2.8,17.2 78.2,27.8 
					78.2,28.2 2.7,17.6 				"/>
				<polygon clip-path="url(#SVGID_2_)" fill-rule="evenodd" clip-rule="evenodd" fill="#0094D9" points="2.8,17.4 78.2,28 
					78.1,28.5 2.7,17.8 				"/>
				<polygon clip-path="url(#SVGID_2_)" fill-rule="evenodd" clip-rule="evenodd" fill="#0094D9" points="2.7,17.6 78.2,28.2 
					78.1,28.7 2.6,18 				"/>
				<polygon clip-path="url(#SVGID_2_)" fill-rule="evenodd" clip-rule="evenodd" fill="#0094D9" points="2.7,17.8 78.1,28.5 
					78.1,28.9 2.6,18.2 				"/>
				<polygon clip-path="url(#SVGID_2_)" fill-rule="evenodd" clip-rule="evenodd" fill="#0094D9" points="2.6,18 78.1,28.7 78,29.1 
					2.6,18.5 				"/>
				<polygon clip-path="url(#SVGID_2_)" fill-rule="evenodd" clip-rule="evenodd" fill="#0094D9" points="2.6,18.2 78.1,28.9 
					78,29.3 2.6,18.7 				"/>
				<polygon clip-path="url(#SVGID_2_)" fill-rule="evenodd" clip-rule="evenodd" fill="#0094D9" points="2.6,18.5 78,29.1 78,29.5 
					2.6,18.9 				"/>
				<polygon clip-path="url(#SVGID_2_)" fill-rule="evenodd" clip-rule="evenodd" fill="#0094D9" points="2.6,18.7 78,29.3 78,29.8 
					2.5,19.1 				"/>
				<polygon clip-path="url(#SVGID_2_)" fill-rule="evenodd" clip-rule="evenodd" fill="#0094D9" points="2.6,18.9 78,29.5 77.9,30 
					2.5,19.3 				"/>
				<polygon clip-path="url(#SVGID_2_)" fill-rule="evenodd" clip-rule="evenodd" fill="#0094D9" points="2.5,19.1 78,29.8 
					77.9,30.2 2.4,19.5 				"/>
				<polygon clip-path="url(#SVGID_2_)" fill-rule="evenodd" clip-rule="evenodd" fill="#0094D9" points="2.5,19.3 77.9,30 
					77.8,30.4 2.4,19.7 				"/>
				<polygon clip-path="url(#SVGID_2_)" fill-rule="evenodd" clip-rule="evenodd" fill="#0094D9" points="2.4,19.5 77.9,30.2 
					77.8,30.6 2.4,19.9 				"/>
				<polygon clip-path="url(#SVGID_2_)" fill-rule="evenodd" clip-rule="evenodd" fill="#0094D9" points="2.4,19.7 77.8,30.4 
					77.8,30.8 2.4,20.1 				"/>
				<polygon clip-path="url(#SVGID_2_)" fill-rule="evenodd" clip-rule="evenodd" fill="#0094D9" points="2.4,19.9 77.8,30.6 
					77.8,31 2.3,20.3 				"/>
				<polygon clip-path="url(#SVGID_2_)" fill-rule="evenodd" clip-rule="evenodd" fill="#0094D9" points="2.4,20.1 77.8,30.8 
					77.8,31.2 2.3,20.5 				"/>
				<polygon clip-path="url(#SVGID_2_)" fill-rule="evenodd" clip-rule="evenodd" fill="#0094D9" points="2.3,20.3 77.8,31 
					77.7,31.4 2.3,20.7 				"/>
				<polygon clip-path="url(#SVGID_2_)" fill-rule="evenodd" clip-rule="evenodd" fill="#0094D9" points="2.3,20.5 77.8,31.2 
					77.7,31.6 2.3,21 				"/>
				<polygon clip-path="url(#SVGID_2_)" fill-rule="evenodd" clip-rule="evenodd" fill="#0094D9" points="2.3,20.7 77.7,31.4 
					77.6,31.8 2.3,21.2 				"/>
				<polygon clip-path="url(#SVGID_2_)" fill-rule="evenodd" clip-rule="evenodd" fill="#0094D9" points="2.3,21 77.7,31.6 77.6,32 
					2.2,21.4 				"/>
				<polygon clip-path="url(#SVGID_2_)" fill-rule="evenodd" clip-rule="evenodd" fill="#0094D9" points="2.3,21.2 77.6,31.8 
					77.6,32.3 2.2,21.6 				"/>
				<polygon clip-path="url(#SVGID_2_)" fill-rule="evenodd" clip-rule="evenodd" fill="#0094D9" points="2.2,21.4 77.6,32 
					77.6,32.5 2.1,21.8 				"/>
				<polygon clip-path="url(#SVGID_2_)" fill-rule="evenodd" clip-rule="evenodd" fill="#0094D9" points="2.2,21.6 77.6,32.3 
					77.5,32.7 2.1,22 				"/>
				<polygon clip-path="url(#SVGID_2_)" fill-rule="evenodd" clip-rule="evenodd" fill="#0094D9" points="2.1,21.8 77.6,32.5 
					77.5,32.9 2,22.3 				"/>
				<polygon clip-path="url(#SVGID_2_)" fill-rule="evenodd" clip-rule="evenodd" fill="#0094D9" points="2.1,22 77.5,32.7 
					77.5,33.1 2,22.5 				"/>
				<polygon clip-path="url(#SVGID_2_)" fill-rule="evenodd" clip-rule="evenodd" fill="#0094D9" points="2,22.3 77.5,32.9 
					77.4,33.3 2,22.6 				"/>
				<polygon clip-path="url(#SVGID_2_)" fill-rule="evenodd" clip-rule="evenodd" fill="#0094D9" points="2,22.5 77.5,33.1 
					77.4,33.5 2,22.9 				"/>
				<polygon clip-path="url(#SVGID_2_)" fill-rule="evenodd" clip-rule="evenodd" fill="#0094D9" points="2,22.6 77.4,33.3 
					77.4,33.7 2,23 				"/>
				<polygon clip-path="url(#SVGID_2_)" fill-rule="evenodd" clip-rule="evenodd" fill="#0094D9" points="2,22.9 77.4,33.5 
					77.4,33.9 1.9,23.2 				"/>
				<polygon clip-path="url(#SVGID_2_)" fill-rule="evenodd" clip-rule="evenodd" fill="#0094D9" points="2,23 77.4,33.7 77.3,34.1 
					1.9,23.5 				"/>
				<polygon clip-path="url(#SVGID_2_)" fill-rule="evenodd" clip-rule="evenodd" fill="#0094D9" points="1.9,23.2 77.4,33.9 
					77.3,34.3 1.8,23.7 				"/>
				<polygon clip-path="url(#SVGID_2_)" fill-rule="evenodd" clip-rule="evenodd" fill="#0094D9" points="1.9,23.5 77.3,34.1 
					77.2,34.5 1.8,23.9 				"/>
				<polygon clip-path="url(#SVGID_2_)" fill-rule="evenodd" clip-rule="evenodd" fill="#0094D9" points="1.8,23.7 77.3,34.3 
					77.2,34.8 1.8,24.1 				"/>
				<polygon clip-path="url(#SVGID_2_)" fill-rule="evenodd" clip-rule="evenodd" fill="#0094D9" points="1.8,23.9 77.2,34.5 
					77.2,35 1.8,24.3 				"/>
				<polygon clip-path="url(#SVGID_2_)" fill-rule="evenodd" clip-rule="evenodd" fill="#0094D9" points="1.8,24.1 77.2,34.8 
					77.2,35.2 1.7,24.6 				"/>
				<polygon clip-path="url(#SVGID_2_)" fill-rule="evenodd" clip-rule="evenodd" fill="#0094D9" points="1.8,24.3 77.2,35 
					77.2,35.4 1.7,24.8 				"/>
				<polygon clip-path="url(#SVGID_2_)" fill-rule="evenodd" clip-rule="evenodd" fill="#0094D9" points="1.7,24.6 77.2,35.2 
					77.1,35.6 1.7,25 				"/>
				<polygon clip-path="url(#SVGID_2_)" fill-rule="evenodd" clip-rule="evenodd" fill="#0094D9" points="1.7,24.8 77.2,35.4 
					77.1,35.9 1.6,25.2 				"/>
				<polygon clip-path="url(#SVGID_2_)" fill-rule="evenodd" clip-rule="evenodd" fill="#0094D9" points="1.7,25 77.1,35.6 77,36.1 
					1.6,25.4 				"/>
				<polygon clip-path="url(#SVGID_2_)" fill-rule="evenodd" clip-rule="evenodd" fill="#0094D9" points="1.6,25.2 77.1,35.9 
					77,36.3 1.6,25.6 				"/>
				<polygon clip-path="url(#SVGID_2_)" fill-rule="evenodd" clip-rule="evenodd" fill="#0094D9" points="1.6,25.4 77,36.1 77,36.5 
					1.6,25.8 				"/>
				<polygon clip-path="url(#SVGID_2_)" fill-rule="evenodd" clip-rule="evenodd" fill="#0094D9" points="1.6,25.6 77,36.3 77,36.7 
					1.5,26 				"/>
				<polygon clip-path="url(#SVGID_2_)" fill-rule="evenodd" clip-rule="evenodd" fill="#0094D9" points="1.6,25.8 77,36.5 
					76.9,36.9 1.5,26.2 				"/>
				<polygon clip-path="url(#SVGID_2_)" fill-rule="evenodd" clip-rule="evenodd" fill="#0094D9" points="1.5,26 77,36.7 76.9,37.1 
					1.4,26.4 				"/>
				<polygon clip-path="url(#SVGID_2_)" fill-rule="evenodd" clip-rule="evenodd" fill="#0094D9" points="1.5,26.2 76.9,36.9 
					76.9,37.3 1.4,26.6 				"/>
				<polygon clip-path="url(#SVGID_2_)" fill-rule="evenodd" clip-rule="evenodd" fill="#0094D9" points="1.4,26.4 76.9,37.1 
					76.8,37.5 1.4,26.8 				"/>
				<polygon clip-path="url(#SVGID_2_)" fill-rule="evenodd" clip-rule="evenodd" fill="#0094D9" points="1.4,26.6 76.9,37.3 
					76.8,37.7 1.4,27.1 				"/>
				<polygon clip-path="url(#SVGID_2_)" fill-rule="evenodd" clip-rule="evenodd" fill="#0094D9" points="1.4,26.8 76.8,37.5 
					76.8,37.9 1.4,27.3 				"/>
				<polygon clip-path="url(#SVGID_2_)" fill-rule="evenodd" clip-rule="evenodd" fill="#0094D9" points="1.4,27.1 76.8,37.7 
					76.8,38.1 1.3,27.5 				"/>
				<polygon clip-path="url(#SVGID_2_)" fill-rule="evenodd" clip-rule="evenodd" fill="#0094D9" points="1.4,27.3 76.8,37.9 
					76.7,38.4 1.3,27.7 				"/>
				<polygon clip-path="url(#SVGID_2_)" fill-rule="evenodd" clip-rule="evenodd" fill="#0094D9" points="1.3,27.5 76.8,38.1 
					76.7,38.6 1.2,27.9 				"/>
				<polygon clip-path="url(#SVGID_2_)" fill-rule="evenodd" clip-rule="evenodd" fill="#0094D9" points="1.3,27.7 76.7,38.4 
					76.6,38.8 1.2,28.1 				"/>
				<polygon clip-path="url(#SVGID_2_)" fill-rule="evenodd" clip-rule="evenodd" fill="#0094D9" points="1.2,27.9 76.7,38.6 
					76.6,39 1.2,28.4 				"/>
				<polygon clip-path="url(#SVGID_2_)" fill-rule="evenodd" clip-rule="evenodd" fill="#0094D9" points="1.2,28.1 76.6,38.8 
					76.6,39.2 1.2,28.6 				"/>
				<polygon clip-path="url(#SVGID_2_)" fill-rule="evenodd" clip-rule="evenodd" fill="#0094D9" points="1.2,28.4 76.6,39 
					76.6,39.4 1.1,28.8 				"/>
				<polygon clip-path="url(#SVGID_2_)" fill-rule="evenodd" clip-rule="evenodd" fill="#0094D9" points="1.2,28.6 76.6,39.2 
					76.6,39.7 1.1,29 				"/>
				<polygon clip-path="url(#SVGID_2_)" fill-rule="evenodd" clip-rule="evenodd" fill="#0094D9" points="1.1,28.8 76.6,39.4 
					76.5,39.9 1.1,29.2 				"/>
				<polygon clip-path="url(#SVGID_2_)" fill-rule="evenodd" clip-rule="evenodd" fill="#0094D9" points="1.1,29 76.6,39.7 
					76.5,40.1 1,29.4 				"/>
				<polygon clip-path="url(#SVGID_2_)" fill-rule="evenodd" clip-rule="evenodd" fill="#0094D9" points="1.1,29.2 76.5,39.9 
					76.4,40.3 1,29.6 				"/>
				<polygon clip-path="url(#SVGID_2_)" fill-rule="evenodd" clip-rule="evenodd" fill="#0094D9" points="1,29.4 76.5,40.1 
					76.4,40.5 1,29.8 				"/>
				<polygon clip-path="url(#SVGID_2_)" fill-rule="evenodd" clip-rule="evenodd" fill="#0094D9" points="1,29.6 76.4,40.3 
					76.4,40.7 1,30 				"/>
				<polygon clip-path="url(#SVGID_2_)" fill-rule="evenodd" clip-rule="evenodd" fill="#0094D9" points="1,29.8 76.4,40.5 
					76.4,40.9 0.9,30.2 				"/>
				<polygon clip-path="url(#SVGID_2_)" fill-rule="evenodd" clip-rule="evenodd" fill="#0094D9" points="1,30 76.4,40.7 76.3,41.1 
					0.9,30.4 				"/>
				<polygon clip-path="url(#SVGID_2_)" fill-rule="evenodd" clip-rule="evenodd" fill="#0094D9" points="0.9,30.2 76.4,40.9 
					76.3,41.3 0.8,30.6 				"/>
				<polygon clip-path="url(#SVGID_2_)" fill-rule="evenodd" clip-rule="evenodd" fill="#0094D9" points="0.9,30.4 76.3,41.1 
					76.3,41.5 0.8,30.9 				"/>
				<polygon clip-path="url(#SVGID_2_)" fill-rule="evenodd" clip-rule="evenodd" fill="#0094D9" points="0.8,30.6 76.3,41.3 
					76.2,41.7 0.8,31.1 				"/>
				<polygon clip-path="url(#SVGID_2_)" fill-rule="evenodd" clip-rule="evenodd" fill="#0094D9" points="0.8,30.9 76.3,41.5 
					76.2,41.9 0.8,31.3 				"/>
				<polygon clip-path="url(#SVGID_2_)" fill-rule="evenodd" clip-rule="evenodd" fill="#0094D9" points="0.8,31.1 76.2,41.7 
					76.2,42.2 0.8,31.5 				"/>
				<polygon clip-path="url(#SVGID_2_)" fill-rule="evenodd" clip-rule="evenodd" fill="#0094D9" points="0.8,31.3 76.2,41.9 
					76.2,42.4 0.7,31.7 				"/>
				<polygon clip-path="url(#SVGID_2_)" fill-rule="evenodd" clip-rule="evenodd" fill="#0094D9" points="0.8,31.5 76.2,42.2 
					76.1,42.6 0.7,31.9 				"/>
				<polygon clip-path="url(#SVGID_2_)" fill-rule="evenodd" clip-rule="evenodd" fill="#0094D9" points="0.7,31.7 76.2,42.4 
					76.1,42.8 0.6,32.1 				"/>
				<polygon clip-path="url(#SVGID_2_)" fill-rule="evenodd" clip-rule="evenodd" fill="#0094D9" points="0.7,31.9 76.1,42.6 76,43 
					0.6,32.3 				"/>
				<polygon clip-path="url(#SVGID_2_)" fill-rule="evenodd" clip-rule="evenodd" fill="#0094D9" points="0.6,32.1 76.1,42.8 
					76,43.2 0.6,32.5 				"/>
				<polygon clip-path="url(#SVGID_2_)" fill-rule="evenodd" clip-rule="evenodd" fill="#0094D9" points="0.6,32.3 76,43 76,43.4 
					0.6,32.7 				"/>
				<polygon clip-path="url(#SVGID_2_)" fill-rule="evenodd" clip-rule="evenodd" fill="#0094D9" points="0.6,32.5 76,43.2 76,43.6 
					0.5,32.9 				"/>
				<polygon clip-path="url(#SVGID_2_)" fill-rule="evenodd" clip-rule="evenodd" fill="#0094D9" points="0.6,32.7 76,43.4 76,43.8 
					0.5,33.2 				"/>
				<polygon clip-path="url(#SVGID_2_)" fill-rule="evenodd" clip-rule="evenodd" fill="#0094D9" points="0.5,32.9 76,43.6 75.9,44 
					0.5,33.4 				"/>
				<polygon clip-path="url(#SVGID_2_)" fill-rule="evenodd" clip-rule="evenodd" fill="#0094D9" points="0.5,33.2 76,43.8 
					75.9,44.2 0.4,33.6 				"/>
				<polygon clip-path="url(#SVGID_2_)" fill-rule="evenodd" clip-rule="evenodd" fill="#0094D9" points="0.5,33.4 75.9,44 
					75.8,44.5 0.4,33.8 				"/>
				<polygon clip-path="url(#SVGID_2_)" fill-rule="evenodd" clip-rule="evenodd" fill="#0094D9" points="0.4,33.6 75.9,44.2 
					75.8,44.7 0.4,34 				"/>
				<polygon clip-path="url(#SVGID_2_)" fill-rule="evenodd" clip-rule="evenodd" fill="#0094D9" points="0.4,33.8 75.8,44.5 
					75.8,44.9 0.4,34.2 				"/>
				<polygon clip-path="url(#SVGID_2_)" fill-rule="evenodd" clip-rule="evenodd" fill="#0094D9" points="0.4,34 75.8,44.7 
					75.8,45.1 0.3,34.5 				"/>
				<polygon clip-path="url(#SVGID_2_)" fill-rule="evenodd" clip-rule="evenodd" fill="#0094D9" points="0.4,34.2 75.8,44.9 
					75.7,45.3 0.3,34.7 				"/>
				<polygon clip-path="url(#SVGID_2_)" fill-rule="evenodd" clip-rule="evenodd" fill="#0094D9" points="0.3,34.5 75.8,45.1 
					75.7,45.5 0.2,34.9 				"/>
				<polygon clip-path="url(#SVGID_2_)" fill-rule="evenodd" clip-rule="evenodd" fill="#0094D9" points="0.3,34.7 75.7,45.3 
					75.7,45.8 0.2,35.1 				"/>
				<polygon clip-path="url(#SVGID_2_)" fill-rule="evenodd" clip-rule="evenodd" fill="#0094D9" points="0.2,34.9 75.7,45.5 
					75.6,46 0.2,35.3 				"/>
				<polygon clip-path="url(#SVGID_2_)" fill-rule="evenodd" clip-rule="evenodd" fill="#0094D9" points="0.2,35.1 75.7,45.8 
					75.6,46.2 0.2,35.5 				"/>
				<polygon clip-path="url(#SVGID_2_)" fill-rule="evenodd" clip-rule="evenodd" fill="#0094D9" points="0.2,35.3 75.6,46 
					75.6,46.4 0.2,35.7 				"/>
				<polygon clip-path="url(#SVGID_2_)" fill-rule="evenodd" clip-rule="evenodd" fill="#0094D9" points="0.2,35.5 75.6,46.2 
					75.6,46.6 0.1,35.9 				"/>
				<polygon clip-path="url(#SVGID_2_)" fill-rule="evenodd" clip-rule="evenodd" fill="#0094D9" points="0.2,35.7 75.6,46.4 
					75.5,46.8 0.1,36.1 				"/>
				<polygon clip-path="url(#SVGID_2_)" fill-rule="evenodd" clip-rule="evenodd" fill="#0094D9" points="0.1,35.9 75.6,46.6 
					75.5,47 0,36.3 				"/>
				<polygon clip-path="url(#SVGID_2_)" fill-rule="evenodd" clip-rule="evenodd" fill="#0094D9" points="0.1,36.1 75.5,46.8 
					75.4,47.2 0,36.5 				"/>
				<polygon clip-path="url(#SVGID_2_)" fill-rule="evenodd" clip-rule="evenodd" fill="#0094D9" points="0,36.3 75.5,47 75.4,47.4 
					0,36.7 				"/>
				<polygon clip-path="url(#SVGID_2_)" fill-rule="evenodd" clip-rule="evenodd" fill="#0094D9" points="0,36.5 75.4,47.2 
					75.4,47.6 0,37 				"/>
				<polygon clip-path="url(#SVGID_2_)" fill-rule="evenodd" clip-rule="evenodd" fill="#0094D9" points="0,36.7 75.4,47.4 
					75.4,47.8 -0.1,37.2 				"/>
				<polygon clip-path="url(#SVGID_2_)" fill-rule="evenodd" clip-rule="evenodd" fill="#0094D9" points="0,37 75.4,47.6 75.4,48 
					-0.1,37.4 				"/>
				<polygon clip-path="url(#SVGID_2_)" fill-rule="evenodd" clip-rule="evenodd" fill="#0094D9" points="-0.1,37.2 75.4,47.8 
					75.3,48.3 -0.1,37.6 				"/>
				<polygon clip-path="url(#SVGID_2_)" fill-rule="evenodd" clip-rule="evenodd" fill="#0094D9" points="-0.1,37.4 75.4,48 
					75.3,48.5 -0.2,37.8 				"/>
				<polygon clip-path="url(#SVGID_2_)" fill-rule="evenodd" clip-rule="evenodd" fill="#0094D9" points="-0.1,37.6 75.3,48.3 
					75.2,48.7 -0.2,38 				"/>
				<polygon clip-path="url(#SVGID_2_)" fill-rule="evenodd" clip-rule="evenodd" fill="#0094D9" points="-0.2,37.8 75.3,48.5 
					75.2,48.9 -0.2,38.3 				"/>
				<polygon clip-path="url(#SVGID_2_)" fill-rule="evenodd" clip-rule="evenodd" fill="#0094D9" points="-0.2,38 75.2,48.7 
					75.2,49.1 -0.2,38.5 				"/>
				<polygon clip-path="url(#SVGID_2_)" fill-rule="evenodd" clip-rule="evenodd" fill="#0094D9" points="-0.2,38.3 75.2,48.9 
					75.2,49.3 -0.3,38.7 				"/>
				<polygon clip-path="url(#SVGID_2_)" fill-rule="evenodd" clip-rule="evenodd" fill="#0094D9" points="-0.2,38.5 75.2,49.1 
					75.1,49.6 -0.3,38.9 				"/>
				<polygon clip-path="url(#SVGID_2_)" fill-rule="evenodd" clip-rule="evenodd" fill="#0094D9" points="-0.3,38.7 75.2,49.3 
					75.1,49.8 -0.4,39.1 				"/>
				<polygon clip-path="url(#SVGID_2_)" fill-rule="evenodd" clip-rule="evenodd" fill="#0094D9" points="-0.3,38.9 75.1,49.6 
					75.1,49.9 -0.4,39.3 				"/>
				<polygon clip-path="url(#SVGID_2_)" fill-rule="evenodd" clip-rule="evenodd" fill="#0094D9" points="-0.4,39.1 75.1,49.8 
					75,50.2 -0.4,39.5 				"/>
				<polygon clip-path="url(#SVGID_2_)" fill-rule="evenodd" clip-rule="evenodd" fill="#0094D9" points="-0.4,39.3 75.1,49.9 
					75,50.3 -0.4,39.7 				"/>
				<polygon clip-path="url(#SVGID_2_)" fill-rule="evenodd" clip-rule="evenodd" fill="#0094D9" points="-0.4,39.5 75,50.2 
					75,50.5 -0.4,39.9 				"/>
				<polygon clip-path="url(#SVGID_2_)" fill-rule="evenodd" clip-rule="evenodd" fill="#0094D9" points="-0.4,39.7 75,50.3 
					75,50.8 -0.5,40.1 				"/>
				<polygon clip-path="url(#SVGID_2_)" fill-rule="evenodd" clip-rule="evenodd" fill="#0094D9" points="-0.4,39.9 75,50.5 
					74.9,51 -0.5,40.3 				"/>
				<polygon clip-path="url(#SVGID_2_)" fill-rule="evenodd" clip-rule="evenodd" fill="#0094D9" points="-0.5,40.1 75,50.8 
					74.9,51.2 -0.6,40.6 				"/>
				<polygon clip-path="url(#SVGID_2_)" fill-rule="evenodd" clip-rule="evenodd" fill="#0094D9" points="-0.5,40.3 74.9,51 
					74.8,51.4 -0.6,40.8 				"/>
				<polygon clip-path="url(#SVGID_2_)" fill-rule="evenodd" clip-rule="evenodd" fill="#0094D9" points="-0.6,40.6 74.9,51.2 
					74.8,51.6 -0.6,41 				"/>
				<polygon clip-path="url(#SVGID_2_)" fill-rule="evenodd" clip-rule="evenodd" fill="#0094D9" points="-0.6,40.8 74.8,51.4 
					74.8,51.9 -0.6,41.2 				"/>
				<polygon clip-path="url(#SVGID_2_)" fill-rule="evenodd" clip-rule="evenodd" fill="#0094D9" points="-0.6,41 74.8,51.6 
					74.8,52.1 -0.7,41.4 				"/>
				<polygon clip-path="url(#SVGID_2_)" fill-rule="evenodd" clip-rule="evenodd" fill="#0094D9" points="-0.6,41.2 74.8,51.9 
					74.8,52.3 -0.7,41.6 				"/>
				<polygon clip-path="url(#SVGID_2_)" fill-rule="evenodd" clip-rule="evenodd" fill="#0094D9" points="-0.7,41.4 74.8,52.1 
					74.7,52.5 -0.7,41.8 				"/>
				<polygon clip-path="url(#SVGID_2_)" fill-rule="evenodd" clip-rule="evenodd" fill="#0094D9" points="-0.7,41.6 74.8,52.3 
					74.7,52.7 -0.8,42 				"/>
				<polygon clip-path="url(#SVGID_2_)" fill-rule="evenodd" clip-rule="evenodd" fill="#0094D9" points="-0.7,41.8 74.7,52.5 
					74.6,52.9 -0.8,42.2 				"/>
				<polygon clip-path="url(#SVGID_2_)" fill-rule="evenodd" clip-rule="evenodd" fill="#0094D9" points="-0.8,42 74.7,52.7 
					74.6,53.1 -0.8,42.4 				"/>
				<polygon clip-path="url(#SVGID_2_)" fill-rule="evenodd" clip-rule="evenodd" fill="#0094D9" points="-0.8,42.2 74.6,52.9 
					74.6,53.3 -0.8,42.6 				"/>
				<polygon clip-path="url(#SVGID_2_)" fill-rule="evenodd" clip-rule="evenodd" fill="#0094D9" points="-0.8,42.4 74.6,53.1 
					74.6,53.5 -0.9,42.8 				"/>
				<polygon clip-path="url(#SVGID_2_)" fill-rule="evenodd" clip-rule="evenodd" fill="#0094D9" points="-0.8,42.6 74.6,53.3 
					74.5,53.7 -0.9,43.1 				"/>
				<polygon clip-path="url(#SVGID_2_)" fill-rule="evenodd" clip-rule="evenodd" fill="#0094D9" points="-0.9,42.8 74.6,53.5 
					74.5,53.9 -1,43.3 				"/>
				<polygon clip-path="url(#SVGID_2_)" fill-rule="evenodd" clip-rule="evenodd" fill="#0094D9" points="-0.9,43.1 74.5,53.7 
					74.5,54.1 -1,43.5 				"/>
				<polygon clip-path="url(#SVGID_2_)" fill-rule="evenodd" clip-rule="evenodd" fill="#0094D9" points="-1,43.3 74.5,53.9 
					74.4,54.4 -1,43.7 				"/>
				<polygon clip-path="url(#SVGID_2_)" fill-rule="evenodd" clip-rule="evenodd" fill="#0094D9" points="-1,43.5 74.5,54.1 
					74.4,54.6 -1,43.9 				"/>
				<polygon clip-path="url(#SVGID_2_)" fill-rule="evenodd" clip-rule="evenodd" fill="#0094D9" points="-1,43.7 74.4,54.4 
					74.4,54.8 -1,44.1 				"/>
				<polygon clip-path="url(#SVGID_2_)" fill-rule="evenodd" clip-rule="evenodd" fill="#0094D9" points="-1,43.9 74.4,54.6 
					74.4,55 -1.1,44.4 				"/>
				<polygon clip-path="url(#SVGID_2_)" fill-rule="evenodd" clip-rule="evenodd" fill="#0094D9" points="-1,44.1 74.4,54.8 
					74.3,55.2 -1.1,44.6 				"/>
				<polygon clip-path="url(#SVGID_2_)" fill-rule="evenodd" clip-rule="evenodd" fill="#0094D9" points="-1.1,44.4 74.4,55 
					74.3,55.4 -1.2,44.8 				"/>
				<polygon clip-path="url(#SVGID_2_)" fill-rule="evenodd" clip-rule="evenodd" fill="#0094D9" points="-1.1,44.6 74.3,55.2 
					74.2,55.7 -1.2,45 				"/>
				<polygon clip-path="url(#SVGID_2_)" fill-rule="evenodd" clip-rule="evenodd" fill="#0094D9" points="-1.2,44.8 74.3,55.4 
					74.2,55.9 -1.2,45.2 				"/>
				<polygon clip-path="url(#SVGID_2_)" fill-rule="evenodd" clip-rule="evenodd" fill="#0094D9" points="-1.2,45 74.2,55.7 
					74.2,56.1 -1.2,45.4 				"/>
				<polygon clip-path="url(#SVGID_2_)" fill-rule="evenodd" clip-rule="evenodd" fill="#0094D9" points="-1.2,45.2 74.2,55.9 
					74.2,56.3 -1.3,45.6 				"/>
				<polygon clip-path="url(#SVGID_2_)" fill-rule="evenodd" clip-rule="evenodd" fill="#0094D9" points="-1.2,45.4 74.2,56.1 
					74.2,56.5 -1.3,45.8 				"/>
				<polygon clip-path="url(#SVGID_2_)" fill-rule="evenodd" clip-rule="evenodd" fill="#0094D9" points="-1.3,45.6 74.2,56.3 
					74.1,56.7 -1.3,46 				"/>
				<polygon clip-path="url(#SVGID_2_)" fill-rule="evenodd" clip-rule="evenodd" fill="#0094D9" points="-1.3,45.8 74.2,56.5 
					74.1,56.9 -1.4,46.2 				"/>
				<polygon clip-path="url(#SVGID_2_)" fill-rule="evenodd" clip-rule="evenodd" fill="#0094D9" points="-1.3,46 74.1,56.7 
					74,57.1 -1.4,46.4 				"/>
				<polygon clip-path="url(#SVGID_2_)" fill-rule="evenodd" clip-rule="evenodd" fill="#0094D9" points="-1.4,46.2 74.1,56.9 
					74,57.3 -1.4,46.7 				"/>
				<polygon clip-path="url(#SVGID_2_)" fill-rule="evenodd" clip-rule="evenodd" fill="#0094D9" points="-1.4,46.4 74,57.1 
					74,57.5 -1.4,46.9 				"/>
				<polygon clip-path="url(#SVGID_2_)" fill-rule="evenodd" clip-rule="evenodd" fill="#0094D9" points="-1.4,46.7 74,57.3 
					74,57.7 -1.5,47.1 				"/>
				<polygon clip-path="url(#SVGID_2_)" fill-rule="evenodd" clip-rule="evenodd" fill="#0094D9" points="-1.4,46.9 74,57.5 
					73.9,57.9 -1.5,47.3 				"/>
				<polygon clip-path="url(#SVGID_2_)" fill-rule="evenodd" clip-rule="evenodd" fill="#0094D9" points="-1.5,47.1 74,57.7 
					73.9,58.2 -1.6,47.5 				"/>
				<polygon clip-path="url(#SVGID_2_)" fill-rule="evenodd" clip-rule="evenodd" fill="#0094D9" points="-1.5,47.3 73.9,57.9 
					73.9,58.4 -1.6,47.7 				"/>
				<polygon clip-path="url(#SVGID_2_)" fill-rule="evenodd" clip-rule="evenodd" fill="#0094D9" points="-1.6,47.5 73.9,58.2 
					73.8,58.6 -1.6,48 				"/>
				<polygon clip-path="url(#SVGID_2_)" fill-rule="evenodd" clip-rule="evenodd" fill="#0094D9" points="-1.6,47.7 73.9,58.4 
					73.8,58.8 -1.6,48.2 				"/>
				<polygon clip-path="url(#SVGID_2_)" fill-rule="evenodd" clip-rule="evenodd" fill="#0094D9" points="-1.6,48 73.8,58.6 
					73.8,59 -1.6,48.4 				"/>
				<polygon clip-path="url(#SVGID_2_)" fill-rule="evenodd" clip-rule="evenodd" fill="#0094D9" points="-1.6,48.2 73.8,58.8 
					73.8,59.2 -1.7,48.6 				"/>
				<polygon clip-path="url(#SVGID_2_)" fill-rule="evenodd" clip-rule="evenodd" fill="#0094D9" points="-1.6,48.4 73.8,59 
					73.7,59.4 -1.7,48.8 				"/>
				<polygon clip-path="url(#SVGID_2_)" fill-rule="evenodd" clip-rule="evenodd" fill="#0094D9" points="-1.7,48.6 73.8,59.2 
					73.7,59.6 -1.8,49 				"/>
				<polygon clip-path="url(#SVGID_2_)" fill-rule="evenodd" clip-rule="evenodd" fill="#0094D9" points="-1.7,48.8 73.7,59.4 
					73.6,59.8 -1.8,49.2 				"/>
				<polygon clip-path="url(#SVGID_2_)" fill-rule="evenodd" clip-rule="evenodd" fill="#0094D9" points="-1.8,49 73.7,59.6 
					73.6,60 -1.8,49.4 				"/>
				<polygon clip-path="url(#SVGID_2_)" fill-rule="evenodd" clip-rule="evenodd" fill="#0094D9" points="-1.8,49.2 73.6,59.8 
					73.6,60.2 -1.8,49.6 				"/>
				<polygon clip-path="url(#SVGID_2_)" fill-rule="evenodd" clip-rule="evenodd" fill="#0094D9" points="-1.8,49.4 73.6,60 
					73.6,60.5 -1.9,49.8 				"/>
				<polygon clip-path="url(#SVGID_2_)" fill-rule="evenodd" clip-rule="evenodd" fill="#0094D9" points="-1.8,49.6 73.6,60.2 
					73.6,60.7 -1.9,50 				"/>
				<polygon clip-path="url(#SVGID_2_)" fill-rule="evenodd" clip-rule="evenodd" fill="#0094D9" points="-1.9,49.8 73.6,60.5 
					72.5,68.1 -3,57.5 				"/>
			</g>
		</g>
		<path fill-rule="evenodd" clip-rule="evenodd" fill="#FFFFFF" d="M75.8,44.6v17.1L4.5,62.8v-5.2l0,0l0,0h4.5l0.3-23.1l-4.9,0.3
			l0,0l0,0l0,0l0,0l0,0l0,0l0,0l0,0l0,0l0,0l0,0l0,0l0,0l0,0l0,0l0,0l0,0l0,0l0,0l0,0l0,0l0,0l0,0l0,0l0,0l0,0l0,0l0,0l0,0l0,0l0,0
			l0,0v-1.6l0,0l0,0l0,0l0,0l0,0l0,0l0,0l0,0l0,0l0,0l0,0l0,0l0,0l0,0l0,0l0,0l4.7-0.1l0.1-0.9H4.5l0,0l0,0l0,0l0,0v-0.7l0,0l0,0
			l0,0l0,0l4.9,0.1L8.7,10.3h6.8L16,24.2L15.6,34l-0.1-0.1v0.7v0.8v0.5l0.1,12.4l0.5-4.8l1.1,14.1h4.7l2.8,0.1v-0.3l1.3-0.1
			l-0.1-0.4h0.7l0.3,0.3l0.7,0.6l25.5,0.7c-1.7-0.1-5.7-0.3-9-1.9c-12.7-5.8-14.4-8.3-19.3-11.9l18,0.1l3.7-0.5l7.5,0.3L75.8,44.6z"
			/>
	</g>
</g>
</svg>
